<?xml version="1.0" encoding="UTF-8" standalone="no"?>
<svg
   xmlns:dc="http://purl.org/dc/elements/1.1/"
   xmlns:cc="http://creativecommons.org/ns#"
   xmlns:rdf="http://www.w3.org/1999/02/22-rdf-syntax-ns#"
   xmlns:svg="http://www.w3.org/2000/svg"
   xmlns="http://www.w3.org/2000/svg"
   xmlns:sodipodi="http://sodipodi.sourceforge.net/DTD/sodipodi-0.dtd"
   xmlns:inkscape="http://www.inkscape.org/namespaces/inkscape"
   width="4000"
   height="600"
   viewBox="0 0 4000 600"
   version="1.1"
   id="svg2"
   inkscape:version="0.48.4 r9939"
   sodipodi:docname="jlp-programs_mark_jlp-crowd-coding.svg"
   inkscape:export-filename="/home/agnium/all/repo/jlpcommunity/jlp-brand/assets/png/jlp-programs_mark_jlp-crowd-coding.png"
   inkscape:export-xdpi="90"
   inkscape:export-ydpi="90">
  <metadata
     id="metadata30">
    <rdf:RDF>
      <cc:Work
         rdf:about="">
        <dc:format>image/svg+xml</dc:format>
        <dc:type
           rdf:resource="http://purl.org/dc/dcmitype/StillImage" />
        <dc:title>Agnium Brand Asset</dc:title>
      </cc:Work>
    </rdf:RDF>
  </metadata>
  <sodipodi:namedview
     pagecolor="#ffffff"
     bordercolor="#666666"
     borderopacity="1"
     objecttolerance="10"
     gridtolerance="10"
     guidetolerance="10"
     inkscape:pageopacity="0"
     inkscape:pageshadow="2"
     inkscape:window-width="1366"
     inkscape:window-height="744"
     id="namedview28"
     showgrid="false"
     inkscape:zoom="0.13513057"
     inkscape:cx="1160.8556"
     inkscape:cy="1410.1819"
     inkscape:window-x="0"
     inkscape:window-y="24"
     inkscape:window-maximized="1"
     inkscape:current-layer="layer1"
     inkscape:object-paths="true"
     inkscape:object-nodes="true"
     inkscape:snap-intersection-paths="true"
     inkscape:snap-smooth-nodes="true"
     inkscape:snap-bbox="true"
     inkscape:snap-global="false" />
  <!-- Generator: Sketch 3.0.3 (7892) - http://www.bohemiancoding.com/sketch -->
  <title
     id="title4">Agnium Brand Asset</title>
  <desc
     id="desc6">Created with Sketch.</desc>
  <defs
     id="defs8">
    <filter
       x="-0.5"
       y="-0.5"
       width="2"
       height="2"
       filterUnits="objectBoundingBox"
       id="filter-1"
       color-interpolation-filters="sRGB">
      <feOffset
         dx="2"
         dy="2"
         in="SourceAlpha"
         result="shadowOffsetOuter1"
         id="feOffset11" />
      <feGaussianBlur
         stdDeviation="2"
         in="shadowOffsetOuter1"
         result="shadowBlurOuter1"
         id="feGaussianBlur13" />
      <feColorMatrix
         values="0 0 0 0 0   0 0 0 0 0   0 0 0 0 0  0 0 0 0.35 0"
         in="shadowBlurOuter1"
         type="matrix"
         result="shadowMatrixOuter1"
         id="feColorMatrix15" />
      <feMerge
         id="feMerge17">
        <feMergeNode
           in="shadowMatrixOuter1"
           id="feMergeNode19" />
        <feMergeNode
           in="SourceGraphic"
           id="feMergeNode21" />
      </feMerge>
    </filter>
  </defs>
  <g
     inkscape:groupmode="layer"
     id="layer2"
     inkscape:label="bg"
     transform="translate(0,-200)"
     style="display:inline" />
  <g
     inkscape:groupmode="layer"
     id="layer1"
     inkscape:label="base"
     style="display:inline"
     transform="translate(0,-200)">
    <g
       id="g3148"
       transform="translate(-129.70023,38.729452)">
      <g
         transform="translate(-766.04022,-1366.8465)"
         style="fill:#6d4c41"
         id="g4610">
        <path
           inkscape:connector-curvature="0"
           id="path4191"
           style="font-size:420.1680603px;font-style:normal;font-weight:bold;line-height:125%;letter-spacing:0px;word-spacing:0px;fill:#6d4c41;fill-opacity:1;stroke:none;font-family:'Exo 2.0';-inkscape-font-specification:'Exo 2.0 Bold'"
           d="m 2331.644,1945.6957 c -25.6302,3.3613 -48.7395,3.7815 -87.3949,3.7815 -42.0168,0 -54.6219,-21.4287 -54.6219,-94.5378 0,-73.1092 12.6051,-94.5379 54.6219,-94.5379 36.5546,0 54.2017,0.4202 81.5126,2.1009 l 5.4622,-47.8992 c -26.4706,-6.7227 -46.2186,-9.6638 -86.9748,-9.6638 -89.4957,0 -121.8487,39.4959 -121.8487,150 0,110.504 32.353,150 121.8487,150 41.5966,0 65.9664,-3.3614 92.8571,-11.7648 l -5.4622,-47.4789" />
        <path
           inkscape:connector-curvature="0"
           id="path4193"
           style="font-size:420.1680603px;font-style:normal;font-weight:bold;line-height:125%;letter-spacing:0px;word-spacing:0px;fill:#6d4c41;fill-opacity:1;stroke:none;font-family:'Exo 2.0';-inkscape-font-specification:'Exo 2.0 Bold'"
           d="m 2523.2144,1786.8721 -10.9244,0 c -26.8907,0 -56.3025,12.6051 -84.0336,36.1345 l -5.4622,-30.2521 -48.3193,0 0,207.1428 62.1849,0 0,-141.1764 c 27.731,-9.2437 45.7983,-14.2857 63.4454,-14.2857 l 16.8067,0 6.3025,-57.5631" />
        <path
           inkscape:connector-curvature="0"
           id="path4195"
           style="font-size:420.1680603px;font-style:normal;font-weight:bold;line-height:125%;letter-spacing:0px;word-spacing:0px;fill:#6d4c41;fill-opacity:1;stroke:none;font-family:'Exo 2.0';-inkscape-font-specification:'Exo 2.0 Bold'"
           d="m 2647.9912,1786.8721 c -77.731,0 -106.7226,29.832 -106.7226,109.6639 0,79.4117 28.9916,108.8235 106.7226,108.8235 77.3109,0 106.3026,-29.4118 106.3026,-108.8235 0,-79.8319 -28.9917,-109.6639 -106.3026,-109.6639 m 0,46.6387 c 31.9328,0 41.1765,12.6051 41.1765,63.0252 0,49.5798 -9.2437,62.1849 -41.1765,62.1849 -32.773,0 -41.5966,-12.6051 -41.5966,-62.1849 0,-50.4201 8.8236,-63.0252 41.5966,-63.0252" />
        <path
           inkscape:connector-curvature="0"
           id="path4197"
           style="font-size:420.1680603px;font-style:normal;font-weight:bold;line-height:125%;letter-spacing:0px;word-spacing:0px;fill:#6d4c41;fill-opacity:1;stroke:none;font-family:'Exo 2.0';-inkscape-font-specification:'Exo 2.0 Bold'"
           d="m 3118.1724,1792.7545 -62.605,0 -28.5715,134.4538 c -2.521,11.7647 -3.3613,22.689 -5.042,34.0336 l -5.042,0 c -1.6807,-11.3446 -4.2017,-22.6891 -5.8824,-34.0336 l -20.5882,-115.5463 c -1.6807,-11.7646 -10.5042,-18.9075 -21.8487,-18.9075 l -43.6975,0 c -11.3445,0 -19.7479,7.1429 -21.4286,18.4874 l -21.0084,115.9664 c -1.6807,11.3445 -3.7815,22.689 -5.4622,34.0336 l -5.4622,0 c -0.8403,-11.3446 -2.9411,-22.6891 -5.042,-34.0336 l -28.1512,-134.4538 -62.6051,0 50.8404,190.7563 c 2.521,10.084 10.9243,16.3865 21.4285,16.3865 l 47.8992,0 c 11.7647,0 21.0084,-7.563 22.6891,-18.9075 l 20.5882,-117.2269 5.042,-34.874 5.042,0 c 2.1009,11.7647 2.9412,23.1093 4.6219,34.874 l 21.0084,117.2269 c 1.6807,11.3445 10.9244,18.9075 22.2689,18.9075 l 48.7395,0 c 10.5042,0 18.9076,-6.3025 21.4286,-16.3865 l 50.8403,-190.7563" />
        <path
           inkscape:connector-curvature="0"
           id="path4199"
           style="font-size:420.1680603px;font-style:normal;font-weight:bold;line-height:125%;letter-spacing:0px;word-spacing:0px;fill:#6d4c41;fill-opacity:1;stroke:none;font-family:'Exo 2.0';-inkscape-font-specification:'Exo 2.0 Bold'"
           d="m 3347.4792,1705.7797 -62.1849,0 0,56.3025 c 0,14.7059 0.8403,29.4118 2.1008,43.2773 -19.3277,-13.0252 -42.8571,-18.4874 -67.2269,-18.4874 -52.1007,0 -79.4117,24.79 -79.4117,107.5631 0,70.5881 20.5883,110.5042 73.5294,110.5042 36.1344,0 62.605,-15.9665 78.9916,-35.2942 l 5.042,30.2521 49.1597,0 0,-294.1176 m -62.1849,231.0924 c -17.6471,11.3446 -27.7311,16.8067 -46.2185,16.8067 -24.3697,0 -34.4538,-10.084 -34.4538,-59.6638 0,-52.1008 10.0841,-60.9244 36.5546,-60.9244 16.8067,0 29.4118,3.7815 44.1177,7.9832 l 0,95.7983" />
        <path
           inkscape:connector-curvature="0"
           id="path4201"
           style="font-size:420.1680603px;font-style:normal;font-weight:bold;line-height:125%;letter-spacing:0px;word-spacing:0px;fill:#6d4c41;fill-opacity:1;stroke:none;font-family:'Exo 2.0';-inkscape-font-specification:'Exo 2.0 Bold'"
           d="m 3693.087,1945.6957 c -25.6302,3.3613 -48.7396,3.7815 -87.395,3.7815 -42.0167,0 -54.6218,-21.4287 -54.6218,-94.5378 0,-73.1092 12.6051,-94.5379 54.6218,-94.5379 36.5546,0 54.2017,0.4202 81.5126,2.1009 l 5.4622,-47.8992 c -26.4706,-6.7227 -46.2185,-9.6638 -86.9748,-9.6638 -89.4957,0 -121.8487,39.4959 -121.8487,150 0,110.504 32.353,150 121.8487,150 41.5966,0 65.9664,-3.3614 92.8572,-11.7648 l -5.4622,-47.4789" />
        <path
           inkscape:connector-curvature="0"
           id="path4203"
           style="font-size:420.1680603px;font-style:normal;font-weight:bold;line-height:125%;letter-spacing:0px;word-spacing:0px;fill:#6d4c41;fill-opacity:1;stroke:none;font-family:'Exo 2.0';-inkscape-font-specification:'Exo 2.0 Bold'"
           d="m 3833.8172,1786.8721 c -77.731,0 -106.7227,29.832 -106.7227,109.6639 0,79.4117 28.9917,108.8235 106.7227,108.8235 77.3108,0 106.3025,-29.4118 106.3025,-108.8235 0,-79.8319 -28.9917,-109.6639 -106.3025,-109.6639 m 0,46.6387 c 31.9327,0 41.1764,12.6051 41.1764,63.0252 0,49.5798 -9.2437,62.1849 -41.1764,62.1849 -32.7731,0 -41.5967,-12.6051 -41.5967,-62.1849 0,-50.4201 8.8236,-63.0252 41.5967,-63.0252" />
        <path
           inkscape:connector-curvature="0"
           id="path4205"
           style="font-size:420.1680603px;font-style:normal;font-weight:bold;line-height:125%;letter-spacing:0px;word-spacing:0px;fill:#6d4c41;fill-opacity:1;stroke:none;font-family:'Exo 2.0';-inkscape-font-specification:'Exo 2.0 Bold'"
           d="m 4181.25,1705.7797 -62.1848,0 0,56.3025 c 0,14.7059 0.8403,29.4118 2.1008,43.2773 -19.3277,-13.0252 -42.8572,-18.4874 -67.2269,-18.4874 -52.1008,0 -79.4117,24.79 -79.4117,107.5631 0,70.5881 20.5882,110.5042 73.5294,110.5042 36.1344,0 62.605,-15.9665 78.9916,-35.2942 l 5.042,30.2521 49.1596,0 0,-294.1176 m -62.1848,231.0924 c -17.6471,11.3446 -27.7311,16.8067 -46.2185,16.8067 -24.3697,0 -34.4538,-10.084 -34.4538,-59.6638 0,-52.1008 10.0841,-60.9244 36.5546,-60.9244 16.8067,0 29.4118,3.7815 44.1177,7.9832 l 0,95.7983" />
        <path
           inkscape:connector-curvature="0"
           id="path4207"
           style="font-size:420.1680603px;font-style:normal;font-weight:bold;line-height:125%;letter-spacing:0px;word-spacing:0px;fill:#6d4c41;fill-opacity:1;stroke:none;font-family:'Exo 2.0';-inkscape-font-specification:'Exo 2.0 Bold'"
           d="m 4250.893,1701.1578 c -12.1849,0 -18.0673,6.3026 -18.0673,18.0673 l 0,22.689 c 0,12.1849 5.8824,18.0673 18.0673,18.0673 l 27.7311,0 c 12.1848,0 18.0672,-5.8824 18.0672,-18.0673 l 0,-22.689 c 0,-11.7647 -5.8824,-18.0673 -18.0672,-18.0673 l -27.7311,0 m 44.9579,298.7395 0,-207.1428 -61.7647,0 0,207.1428 61.7647,0" />
        <path
           inkscape:connector-curvature="0"
           id="path4209"
           style="font-size:420.1680603px;font-style:normal;font-weight:bold;line-height:125%;letter-spacing:0px;word-spacing:0px;fill:#6d4c41;fill-opacity:1;stroke:none;font-family:'Exo 2.0';-inkscape-font-specification:'Exo 2.0 Bold'"
           d="m 4398.5362,1792.7545 -50.4202,0 0,207.1428 62.1849,0 0,-141.5966 c 24.3697,-12.1849 40.7563,-18.9076 57.563,-18.9076 15.126,0 20.1681,5.4622 20.1681,24.3698 l 0,136.1344 61.7647,0 0,-155.4621 c 0,-37.395 -20.1681,-57.5631 -57.9832,-57.5631 -29.4117,0 -59.6639,13.0253 -88.6555,36.5547 l -4.6218,-30.6723" />
        <path
           inkscape:connector-curvature="0"
           id="path4211"
           style="font-size:420.1680603px;font-style:normal;font-weight:bold;line-height:125%;letter-spacing:0px;word-spacing:0px;fill:#6d4c41;fill-opacity:1;stroke:none;font-family:'Exo 2.0';-inkscape-font-specification:'Exo 2.0 Bold'"
           d="m 4809.2965,1820.0654 2.9412,-27.3109 -66.8068,0 c -13.8655,-3.7815 -31.5126,-5.8824 -54.2016,-5.8824 -73.1092,0 -97.8992,18.4875 -97.8992,66.8068 0,27.731 8.8235,45.7983 30.6723,55.8823 -20.1681,11.7647 -26.0504,45.7983 -6.7227,63.8655 -23.9496,11.3446 -32.7731,23.5295 -32.7731,44.958 0,46.2185 23.1093,61.7647 109.2437,61.7647 79.8318,0 108.8235,-13.4454 108.8235,-67.2269 0,-37.3949 -16.8068,-56.7226 -60.084,-61.7647 l -75.2101,-8.8235 c -15.9664,-1.6807 -17.6471,-15.9664 -12.1849,-24.7899 10.5042,1.2605 22.2689,2.1008 35.7143,2.1008 73.1092,0 97.479,-18.9076 97.479,-66.3865 0,-11.7647 -1.6807,-21.8488 -5.042,-29.8319 l 26.0504,-3.3614 m -118.4874,60.084 c -30.6723,0 -40.3361,-6.7227 -40.3361,-26.8907 0,-20.5882 9.6638,-26.4706 40.3361,-26.4706 30.6722,0 39.916,5.8824 39.916,26.4706 0,20.168 -9.2438,26.8907 -39.916,26.8907 m 18.4874,111.7647 c 26.4705,2.9412 34.0336,4.2017 34.0336,19.3278 0,18.9075 -9.6639,22.689 -50.4202,22.689 -39.9159,0 -49.1596,-2.9411 -49.1596,-23.5294 0,-10.5042 4.2017,-16.3865 13.4453,-23.9495 l 52.1009,5.4621" />
        <g
           transform="translate(1321.4346,1407.8807)"
           style="fill:#6d4c41;display:inline"
           id="g4343-83-6">
          <path
             inkscape:connector-curvature="0"
             style="fill:#6d4c41;fill-opacity:1;fill-rule:nonzero;stroke:none;display:inline"
             d="m 118.305,168.2042 c -1.29485,-0.02 -2.2384,1.42615 -2.91095,4.43195 -3.89085,15.2321 -15.0795,31.1473 -25.4962,44.032 C 79.4812,229.5529 65.6788,242.5109 78.446,266.47455 c 8.9594,14.329 22.1372,19.28425 33.19595,20.62605 -2.90245,-1.96095 -5.47275,-4.26995 -7.16115,-6.9399 -6.72,-10.62655 -3.8416,-21.3073 -3.8416,-21.3073 0,0 8.29235,18.037 20.8543,23.4792 4.2925,1.85965 7.72985,3.03255 10.6498,3.70665 0,0 41.47645,-12.92025 28.7361,-50.33435 -1.31005,-3.0206 -2.90675,-5.97175 -4.8282,-8.4229 -3.27275,-4.17485 -6.0628,-6.5237 -8.14915,-7.8452 -0.494,2.89755 -1.1892,5.8122 -2.1667,8.4134 -3.82045,10.16655 -10.97665,10.8157 -10.97665,10.8157 0,0 6.1084,-0.7249 4.8476,-19.83565 -0.8643,-13.101 -6.67625,-30.3138 -11.523,-38.7089 -4.48555,-7.76945 -7.62025,-11.8822 -9.7783,-11.91715 z"
             id="rect4149-4-9" />
          <path
             d="m 163.4789,302.10075 -90.33615,0 0,217.22715 c 0,10.5042 -7.9832,14.7059 -24.7899,14.7059 l -19.7479,0 -9.6639,57.14285 c 14.28575,7.563 49.1597,10.92435 67.6471,10.92435 47.479,0 76.89075,-21.42855 76.89075,-59.2437 z"
             style="font-size:84.03361511px;font-style:normal;font-variant:normal;font-weight:900;font-stretch:normal;line-height:125%;letter-spacing:0px;word-spacing:0px;fill:#6d4c41;fill-opacity:1;stroke:none;display:inline;font-family:'Exo 2.0';-inkscape-font-specification:'Exo 2.0 Heavy'"
             id="path4194-6-2"
             inkscape:connector-curvature="0"
             sodipodi:nodetypes="ccssccssc" />
          <path
             d="m 294.6554,302.10075 -91.1765,0 -5e-5,229.8321 c 0,39.0756 26.8908,65.9664 68.9076,65.9664 47.479,0 98.3193,0 141.59665,-5.8824 l -4.2017,-68.0672 -97.479,0 c -10.92435,0 -17.64705,-6.30255 -17.64705,-15.12605 z"
             style="font-size:84.03361511px;font-style:normal;font-variant:normal;font-weight:900;font-stretch:normal;line-height:125%;letter-spacing:0px;word-spacing:0px;fill:#6d4c41;fill-opacity:1;stroke:none;display:inline;font-family:'Exo 2.0';-inkscape-font-specification:'Exo 2.0 Heavy'"
             id="path4208-35-5"
             inkscape:connector-curvature="0"
             sodipodi:nodetypes="ccssccssc" />
          <path
             d="m 438.2018,596.21855 91.1765,0 0,-100 c 14.2857,1.68065 29.41175,2.521 44.11765,2.521 79.41175,0 107.563,-21.42855 107.563,-97.89915 0,-77.31095 -28.15125,-98.7395 -120.16805,-98.7395 -57.9832,0 -84.03365,0.42 -122.6891,4.2017 l 0,289.91595 z m 91.1765,-161.7647 0,-68.06725 29.41175,0 c 24.7899,0 31.09245,6.7227 31.09245,34.4538 0,26.89075 -6.30255,33.61345 -31.09245,33.61345 l -29.41175,0 z"
             style="font-size:84.03361511px;font-style:normal;font-variant:normal;font-weight:900;font-stretch:normal;line-height:125%;letter-spacing:0px;word-spacing:0px;fill:#6d4c41;fill-opacity:1;stroke:none;display:inline;font-family:'Exo 2.0';-inkscape-font-specification:'Exo 2.0 Heavy'"
             id="path4210-3-4"
             inkscape:connector-curvature="0" />
        </g>
      </g>
      <path
         style="fill:#6d4c41;fill-opacity:1"
         id="path4986"
         d="m 399.61838,552.94633 c 0,11.6981 -9.434,20.75469 -20.7548,20.75469 h -6.4151 v 69.43399 h -10.1885 v -79.2453 h 16.6036 c 6.0378,0 10.9435,-4.90565 10.9435,-10.94338 v -90.9434 c 0,-6.03773 -4.9057,-10.94343 -10.9435,-10.94343 h -69.4339 c -6.0378,0 -10.9434,4.9057 -10.9434,10.94343 v 90.9434 c 0,6.03773 4.9056,10.94338 10.9434,10.94338 h 15.4717 v 79.2453 h -10.1886 v -69.05663 h -5.6604 c -11.6982,0 -20.7547,-9.43395 -20.7547,-20.7547 v -91.32075 c 0,-11.69815 9.434,-20.75474 20.7547,-20.75474 h 69.434 c 11.6981,0 20.7546,9.43395 20.7546,20.75474 v 90.9434 z m -95.8491,-169.81134 c 0,-22.26415 18.1132,-39.99998 40,-39.99998 21.8868,0 40,18.11319 40,39.99998 0,21.88678 -18.1132,40.00001 -40,40.00001 -21.8868,0 -40,-17.73588 -40,-40.00001 z m 10.1887,0 c 0,16.60376 13.5849,30.1887 30.1886,30.1887 16.6035,0 30.1884,-13.58494 30.1884,-30.1887 0,-16.60378 -13.5849,-30.18867 -30.1884,-30.18867 -16.604,0.37736 -30.1886,13.58489 -30.1886,30.18867 z m -38.4907,260.00002 h 10.1885 v -57.73584 h 4.5283 v -10.18871 h -14.717 v 67.92455 z m -52.4528,-76.22643 v -76.98115 c 0,-4.5283 3.7734,-8.30188 8.3018,-8.30188 h 45.6602 v -10.18867 h -45.2827 c -10.1886,0 -18.4908,8.30188 -18.4908,18.49055 v 76.98115 c 0,10.18867 8.302,18.49059 18.4908,18.49059 h 3.7736 v 57.73584 h 10.1884 v -67.92455 h -13.962 c -4.9058,0 -8.6793,-3.77359 -8.6793,-8.30188 z m 3.0189,-143.77358 c 0,-19.24531 15.4717,-34.71699 34.717,-34.71699 19.2453,0 34.717,15.47168 34.717,34.71699 0,19.24526 -15.4717,34.71699 -34.717,34.71699 -19.2453,0 -34.7169,-15.47173 -34.7169,-34.71699 z m 10.1884,0 c 0,13.58489 10.9438,24.52828 24.5283,24.52828 13.585,0 24.5283,-10.94339 24.5283,-24.52828 0,-13.58494 -10.9434,-24.52832 -24.5283,-24.52832 -13.5849,0 -24.5282,10.94338 -24.5282,24.52832 z m 161.1324,162.26417 h 4.528 v 57.73584 h 10.1887 v -67.92455 h -14.717 v 10.18871 z m 58.4907,-113.96229 h -45.283 v 10.18867 h 45.6603 c 4.5283,0 8.3019,3.77358 8.3019,8.30188 v 76.98115 c 0,4.52829 -3.7736,8.30188 -8.3019,8.30188 h -14.3396 v 67.92455 h 10.1887 v -57.73584 h 3.7736 c 10.1886,0 18.4906,-8.30192 18.4906,-18.49059 v -76.98115 c 0,-10.18867 -8.3019,-18.49055 -18.4906,-18.49055 z M 392.07118,423.135 c 0,-19.24531 15.4717,-34.71699 34.717,-34.71699 19.2453,0 34.7171,15.47168 34.7171,34.71699 0,19.24526 -15.4718,34.71699 -34.7171,34.71699 -19.2453,0 -34.717,-15.47173 -34.717,-34.71699 z m 9.8113,0 c 0,13.58489 10.9435,24.52828 24.5283,24.52828 13.5849,0 24.5283,-10.94339 24.5283,-24.52828 0,-13.58494 -10.9437,-24.52832 -24.5283,-24.52832 -13.2075,-0.37736 -24.5283,10.94338 -24.5283,24.52832 z"
         inkscape:connector-curvature="0" />
    </g>
  </g>
</svg>
