<?xml version="1.0" encoding="utf-8"?>
<!-- Generator: Adobe Illustrator 17.0.0, SVG Export Plug-In . SVG Version: 6.00 Build 0)  -->
<!DOCTYPE svg PUBLIC "-//W3C//DTD SVG 1.1//EN" "http://www.w3.org/Graphics/SVG/1.1/DTD/svg11.dtd">
<svg version="1.1" id="Layer_1" xmlns="http://www.w3.org/2000/svg" xmlns:xlink="http://www.w3.org/1999/xlink" x="0px" y="0px"
	 width="1024px" height="1024px" viewBox="0 0 1024 1024" enable-background="new 0 0 1024 1024" xml:space="preserve">
<g>
	<g>
		<polygon fill="#FFC107" points="798.972,667.092 336.897,667.092 798.972,205.016 		"/>
		<polygon fill="#4E4E4C" points="562.263,361.515 321.141,120.396 803.382,120.396 		"/>
		<polygon fill="#00897B" points="236.798,582.383 236.798,120.307 698.874,582.383 		"/>
	</g>
	
		<radialGradient id="SVGID_1_" cx="516.5554" cy="876.6516" r="335.0362" gradientTransform="matrix(1 0 0 0.1 0 788.9865)" gradientUnits="userSpaceOnUse">
		<stop  offset="0" style="stop-color:#000000;stop-opacity:0.4"/>
		<stop  offset="1" style="stop-color:#FFFFFF;stop-opacity:0"/>
	</radialGradient>
	<path opacity="0.45" fill="url(#SVGID_1_)" d="M986.438,876.654c0,33.635-210.373,60.901-469.88,60.901
		c-259.508,0-469.885-27.266-469.885-60.901c0-33.64,210.377-60.906,469.885-60.906
		C776.065,815.748,986.438,843.014,986.438,876.654z"/>
	<g>
		<path id="path4137-3" inkscape:connector-curvature="0" fill="#00897B" d="M236.798,811.711
			c20.199,1.278,41.932,2.301,68.523,2.301c55.483,0,75.17-20.71,75.17-90.511s-19.688-90.511-75.17-90.511
			c-26.847,0-48.324,1.023-68.523,2.301V811.711 M275.662,663.671l29.659-0.256c26.335,0,34.261,13.807,34.261,60.085
			s-7.926,59.83-34.261,59.83c-10.739,0-20.71-0.256-29.659-0.256V663.671"/>
		<path id="path4139-1" inkscape:connector-curvature="0" fill="#00897B" d="M488.565,761.342c27.358,0,38.352-12.273,38.352-35.284
			c-0.256-28.892-16.875-43.977-59.83-43.977c-45.767,0-64.176,16.875-64.176,66.733c0,46.534,17.898,65.966,65.71,65.966
			c17.898,0,40.142-2.301,54.972-9.46l-3.58-23.523c-17.131,1.79-35.54,2.813-47.045,2.813c-19.176,0-27.614-4.347-29.915-23.267
			H488.565 M442.287,738.586c1.023-23.778,7.159-28.892,26.08-28.892c16.364,0,21.477,4.091,21.477,15.852
			c0,7.159-1.534,13.04-11.761,13.04H442.287"/>
		<path id="path4141-4" inkscape:connector-curvature="0" fill="#00897B" d="M676.411,685.66h-39.886l-22.756,79.006l-5.881,22.5
			h-3.324c-1.534-7.415-3.324-15.085-5.369-22.5L576.44,685.66h-40.142l41.42,117.102c1.79,5.369,6.392,8.949,12.273,8.949h32.727
			c5.881,0,10.483-3.58,12.273-8.949L676.411,685.66"/>
		<path id="path4143-6" inkscape:connector-curvature="0" fill="#00897B" d="M748.921,764.921
			c12.528,3.58,17.898,4.091,17.898,11.761c0,8.182-5.881,9.46-31.705,9.46c-16.875,0-34.517,0-43.722-0.511l-2.301,24.545
			c24.29,4.091,47.045,4.347,56.506,4.347c40.653,0,57.784-7.415,57.784-38.608c0-21.989-9.716-30.682-31.193-36.818l-32.216-8.693
			c-12.017-3.324-16.619-3.58-16.619-11.25c0-8.438,4.602-8.438,24.29-8.438c15.852,0,32.472,0.256,48.58,0.511l2.557-24.29
			c-15.596-2.813-40.142-4.602-58.295-4.858c-39.375,0-53.693,9.716-53.693,36.051c0,19.943,6.648,31.449,30.682,38.352
			L748.921,764.921"/>
	</g>
</g>
</svg>
