<?xml version="1.0" encoding="utf-8"?>
<!-- Generator: Adobe Illustrator 17.0.0, SVG Export Plug-In . SVG Version: 6.00 Build 0)  -->
<!DOCTYPE svg PUBLIC "-//W3C//DTD SVG 1.1//EN" "http://www.w3.org/Graphics/SVG/1.1/DTD/svg11.dtd">
<svg version="1.1" id="Layer_1" xmlns="http://www.w3.org/2000/svg" xmlns:xlink="http://www.w3.org/1999/xlink" x="0px" y="0px"
	 width="1024px" height="1024px" viewBox="0 0 1024 1024" enable-background="new 0 0 1024 1024" xml:space="preserve">
<g>
	<path fill="#0288D1" d="M508.816,116.741c-104.686,0-189.544,84.858-189.544,189.544c0,30.042,15.626,65.613,37.889,101.066
		v-30.097c0-11.497,9.35-20.848,20.868-20.848h45.014l7.867,10.482l-14.445,81.81l19.579,18.428l19.56-18.428l-14.446-81.81
		l7.848-10.482H494c6.636,0,12.883,3.201,16.808,8.51l37.44,50.832l30.121-18.077c9.877-5.973,22.683-2.771,28.636,7.145
		c5.954,9.877,2.752,22.682-7.164,28.656l-46.401,27.836c-9.194,5.525-21.16,3.124-27.504-5.524l-38.865-52.706v158.995
		c13.299,13.036,21.745,20.696,21.745,20.696s189.544-171.808,189.54-276.485C698.356,201.598,613.498,116.741,508.816,116.741z
		 M436.005,342.253c-26.216,0-47.474-32.638-47.474-62.563c0-29.925,21.258-45.795,47.474-45.795
		c26.236,0,47.513,15.87,47.513,45.795C483.518,309.614,462.24,342.253,436.005,342.253z"/>
	
		<radialGradient id="SVGID_1_" cx="508.8138" cy="804.0594" r="272.4595" gradientTransform="matrix(1 0 0 0.1 0 723.6535)" gradientUnits="userSpaceOnUse">
		<stop  offset="0" style="stop-color:#000000;stop-opacity:0.4"/>
		<stop  offset="1" style="stop-color:#FFFFFF;stop-opacity:0"/>
	</radialGradient>
	<path opacity="0.45" fill="url(#SVGID_1_)" d="M890.934,804.052c0,27.361-171.076,49.533-382.117,49.533
		s-382.122-22.173-382.122-49.533c0-27.346,171.08-49.519,382.122-49.519S890.934,776.706,890.934,804.052z"/>
	<g>
		<path fill="#03A9F4" d="M436.005,233.895c26.236,0,47.513,15.87,47.513,45.795c0,29.924-21.278,62.563-47.513,62.563
			c-13.311,0-25.336-8.125-33.957-20.325c1.204,9.488,4.081,23.072,8.148,35.072h12.847l7.867,10.185l-5.769,32.524
			c6.906,18.203,14.779,37.318,22.878,56.21l7.585-7.183l-14.446-81.532L449.006,357H494c6.636,0,12.883,2.904,16.808,8.213
			l37.44,50.683l30.121-18.151c4.923-2.977,10.573-3.71,15.74-2.433c12.958-34.64,22.115-65.256,22.115-82.571
			c0-59.319-48.083-107.416-107.401-107.416c-28.163,0-53.78,10.846-72.935,28.578C435.926,233.904,435.964,233.895,436.005,233.895
			z"/>
		<path fill="#03A9F4" d="M553.44,461.308c-9.194,5.525-21.195,3.124-27.54-5.524L487,403.079v139.114
			c13,27.001,21.786,45.003,21.786,45.003s33.629-67.335,63.247-137.053L553.44,461.308z"/>
	</g>
	<g>
		<path id="path4151-0" inkscape:connector-curvature="0" fill="#3949AB" d="M77.809,740.52h32.789v-55.223
			c8.629,1.079,18.336,1.726,28.043,1.726c36.887,0,50.046-10.354,50.046-48.752c0-37.966-13.159-48.536-54.36-48.536
			c-26.749,0-38.613,0.216-56.517,1.941V740.52 M110.598,661.784v-46.594l23.082-0.216c16.826,0,22.003,4.746,22.003,23.297
			s-5.177,23.297-22.003,23.513L110.598,661.784"/>
		<path id="path4153-9" inkscape:connector-curvature="0" fill="#3949AB" d="M284.525,631.152h-5.609
			c-13.806,0-28.906,6.471-43.143,18.552l-2.804-15.531h-24.807V740.52h31.926v-72.48c14.237-4.746,23.513-7.334,32.573-7.334h8.629
			L284.525,631.152"/>
		<path id="path4155-0" inkscape:connector-curvature="0" fill="#3949AB" d="M366.059,698.024c23.082,0,32.357-10.354,32.357-29.769
			c-0.216-24.376-14.237-37.103-50.477-37.103c-38.613,0-54.145,14.237-54.145,56.302c0,39.26,15.1,55.654,55.439,55.654
			c15.1,0,33.867-1.941,46.379-7.981l-3.02-19.846c-14.453,1.51-29.984,2.373-39.692,2.373c-16.179,0-23.297-3.667-25.239-19.63
			L366.059,698.024 M327.014,678.825c0.863-20.061,6.04-24.376,22.003-24.376c13.806,0,18.12,3.451,18.12,13.374
			c0,6.04-1.294,11.001-9.923,11.001H327.014"/>
		<path id="path4157-6" inkscape:connector-curvature="0" fill="#3949AB" d="M466.484,701.044c10.57,3.02,15.1,3.451,15.1,9.923
			c0,6.903-4.961,7.981-26.749,7.981c-14.237,0-29.122,0-36.887-0.431l-1.941,20.709c20.493,3.451,39.692,3.667,47.673,3.667
			c34.299,0,48.752-6.256,48.752-32.573c0-18.551-8.197-25.886-26.317-31.063l-27.18-7.334c-10.139-2.804-14.021-3.02-14.021-9.492
			c0-7.119,3.883-7.119,20.493-7.119c13.374,0,27.396,0.216,40.986,0.431l2.157-20.493c-13.159-2.373-33.867-3.883-49.183-4.099
			c-33.22,0-45.3,8.197-45.3,30.416c0,16.826,5.609,26.533,25.886,32.357L466.484,701.044"/>
		<path id="path4159-5" inkscape:connector-curvature="0" fill="#3949AB" d="M600.733,698.024c23.082,0,32.357-10.354,32.357-29.769
			c-0.216-24.376-14.237-37.103-50.477-37.103c-38.613,0-54.144,14.237-54.144,56.302c0,39.26,15.1,55.654,55.439,55.654
			c15.1,0,33.867-1.941,46.379-7.981l-3.02-19.846c-14.453,1.51-29.984,2.373-39.692,2.373c-16.179,0-23.297-3.667-25.239-19.63
			L600.733,698.024 M561.689,678.825c0.863-20.061,6.04-24.376,22.003-24.376c13.806,0,18.12,3.451,18.12,13.374
			c0,6.04-1.294,11.001-9.923,11.001H561.689"/>
		<path id="path4161-1" inkscape:connector-curvature="0" fill="#3949AB" d="M679.803,634.172h-25.886V740.52h31.926v-72.696
			c12.511-6.256,20.924-9.707,29.553-9.707c7.766,0,10.354,2.804,10.354,12.511v69.892h31.71v-79.815
			c0-19.199-10.354-29.553-29.769-29.553c-15.1,0-30.632,6.687-45.516,18.767L679.803,634.172"/>
		<path id="path4163-8" inkscape:connector-curvature="0" fill="#3949AB" d="M824.679,655.528h29.553v-21.356h-29.553v-29.769
			h-31.71v29.769l-18.767,1.079v20.277h18.767v56.949c0,19.414,11.217,30.632,30.416,30.632c7.55,0,22.003-1.51,29.984-4.314
			l-3.451-22.219h-13.59c-8.629,0-11.649-2.804-11.649-10.786V655.528"/>
		<path id="path4165-0" inkscape:connector-curvature="0" fill="#3949AB" d="M918.981,701.044c10.57,3.02,15.1,3.451,15.1,9.923
			c0,6.903-4.962,7.981-26.749,7.981c-14.237,0-29.122,0-36.887-0.431l-1.941,20.709c20.493,3.451,39.692,3.667,47.673,3.667
			c34.299,0,48.752-6.256,48.752-32.573c0-18.551-8.197-25.886-26.317-31.063l-27.18-7.334c-10.139-2.804-14.021-3.02-14.021-9.492
			c0-7.119,3.883-7.119,20.493-7.119c13.374,0,27.396,0.216,40.986,0.431l2.157-20.493c-13.159-2.373-33.867-3.883-49.183-4.099
			c-33.22,0-45.3,8.197-45.3,30.416c0,16.826,5.609,26.533,25.886,32.357L918.981,701.044"/>
	</g>
</g>
</svg>
