<?xml version="1.0" encoding="utf-8"?>
<!-- Generator: Adobe Illustrator 17.0.0, SVG Export Plug-In . SVG Version: 6.00 Build 0)  -->
<!DOCTYPE svg PUBLIC "-//W3C//DTD SVG 1.0//EN" "http://www.w3.org/TR/2001/REC-SVG-20010904/DTD/svg10.dtd">
<svg version="1.0" id="Layer_1" xmlns="http://www.w3.org/2000/svg" xmlns:xlink="http://www.w3.org/1999/xlink" x="0px" y="0px"
	 width="1000px" height="1000px" viewBox="0 0 1000 1000" enable-background="new 0 0 1000 1000" xml:space="preserve">
<g>
	
		<radialGradient id="SVGID_1_" cx="478.6263" cy="807.0575" r="328.1733" gradientTransform="matrix(1 0 0 0.1 0 726.3517)" gradientUnits="userSpaceOnUse">
		<stop  offset="0" style="stop-color:#000000;stop-opacity:0.4"/>
		<stop  offset="1" style="stop-color:#FFFFFF;stop-opacity:0"/>
	</radialGradient>
	<path opacity="0.45" fill="url(#SVGID_1_)" d="M938.883,807.06c0,32.946-206.063,59.654-460.255,59.654
		c-254.192,0-460.26-26.708-460.26-59.654c0-32.951,206.068-59.659,460.26-59.659C732.82,747.401,938.883,774.109,938.883,807.06z"
		/>
	<g>
		<g>
			<linearGradient id="SVGID_2_" gradientUnits="userSpaceOnUse" x1="361.585" y1="534.8038" x2="507.2858" y2="534.8038">
				<stop  offset="0" style="stop-color:#FFF03B"/>
				<stop  offset="0.1975" style="stop-color:#FEE332"/>
				<stop  offset="0.7093" style="stop-color:#FDC51E"/>
				<stop  offset="1" style="stop-color:#FCBA16"/>
			</linearGradient>
			<polygon fill="url(#SVGID_2_)" points="361.585,591.895 402.582,585.97 507.286,478.736 390.738,477.713 			"/>
			<linearGradient id="SVGID_3_" gradientUnits="userSpaceOnUse" x1="332.0732" y1="230.5318" x2="853.0748" y2="230.5318">
				<stop  offset="0" style="stop-color:#FFF03B"/>
				<stop  offset="0.1975" style="stop-color:#FEE332"/>
				<stop  offset="0.7093" style="stop-color:#FDC51E"/>
				<stop  offset="1" style="stop-color:#FCBA16"/>
			</linearGradient>
			<polygon fill="url(#SVGID_3_)" points="362.109,143.058 332.073,164.262 619.462,329.888 853.075,131.176 			"/>
			<linearGradient id="SVGID_4_" gradientUnits="userSpaceOnUse" x1="619.4617" y1="289.2029" x2="853.2748" y2="289.2029">
				<stop  offset="0" style="stop-color:#FFF03B"/>
				<stop  offset="0.1975" style="stop-color:#FEE332"/>
				<stop  offset="0.7093" style="stop-color:#FDC51E"/>
				<stop  offset="1" style="stop-color:#FCBA16"/>
			</linearGradient>
			<polygon fill="url(#SVGID_4_)" points="619.462,329.888 787.65,447.23 814.155,424.26 853.275,131.185 853.075,131.176 			"/>
		</g>
		<linearGradient id="SVGID_5_" gradientUnits="userSpaceOnUse" x1="281.9157" y1="373.0247" x2="826.7756" y2="373.0247">
			<stop  offset="0" style="stop-color:#FFF03B"/>
			<stop  offset="0.1975" style="stop-color:#FEE332"/>
			<stop  offset="0.7093" style="stop-color:#FDC51E"/>
			<stop  offset="1" style="stop-color:#FCBA16"/>
		</linearGradient>
		<polygon fill="url(#SVGID_5_)" points="826.776,154.154 332.073,164.262 281.916,513.826 366.145,502.782 361.585,591.895 
			465.748,490.756 787.65,447.23 		"/>
	</g>
	<g>
		<path id="path4121-2" inkscape:connector-curvature="0" fill="#FB8C00" d="M312.874,616.029v-32.274H165.819v32.274h53.617
			v147.315h39.822V616.029H312.874"/>
		<path id="path4123-1" inkscape:connector-curvature="0" fill="#FB8C00" d="M314.598,663.659
			c20.562-1.301,41.904-2.082,54.137-2.082c16.397,0,20.822,3.644,21.082,16.658v5.726h-45.808
			c-24.466,0-39.301,11.973-39.301,32.534v13.014c0,23.945,17.959,36.959,41.904,36.959c22.644,0,38.26-11.973,47.37-22.644
			l3.904,19.521h30.452v-84.849c0-36.178-17.438-47.11-50.493-47.11c-17.959,0-48.151,2.863-66.891,6.247L314.598,663.659
			 M342.708,719.358c0-7.288,3.123-11.973,12.493-12.233h34.616v17.959c-10.931,8.329-23.164,12.493-32.014,12.493
			c-10.411,0-15.096-4.164-15.096-13.274V719.358"/>
		<path id="path4125-9" inkscape:connector-curvature="0" fill="#FB8C00" d="M497.156,581.152h-38.26V731.07
			c0,22.644,14.315,35.397,36.959,35.397c8.329,0,24.206-1.822,30.713-5.206l-4.425-26.808h-10.411
			c-9.63,0-14.575-4.164-14.575-13.014L497.156,581.152"/>
		<path id="path4127-0" inkscape:connector-curvature="0" fill="#FB8C00" d="M592.461,703.742l35.918,59.603h43.206l-37.74-57.26
			c-3.123-5.466-8.849-11.712-11.973-13.795v-0.521c3.123-2.082,8.849-7.027,11.973-12.233l33.315-44.507h-43.206l-31.753,44.767
			h-11.973c1.301-7.548,1.822-15.356,1.822-23.425v-75.219H543.53v182.192h38.521v-40.343c0-5.726-0.781-12.493-1.822-19.26H592.461
			"/>
		<path id="path4129-7" inkscape:connector-curvature="0" fill="#FB8C00" d="M745.409,715.714
			c12.753,3.644,18.219,4.164,18.219,11.973c0,8.329-5.986,9.63-32.274,9.63c-17.178,0-35.137,0-44.507-0.521l-2.342,24.986
			c24.726,4.164,47.891,4.425,57.521,4.425c41.383,0,58.822-7.548,58.822-39.301c0-22.384-9.891-31.233-31.753-37.479l-32.795-8.849
			c-12.233-3.384-16.918-3.644-16.918-11.452c0-8.589,4.685-8.589,24.726-8.589c16.137,0,33.055,0.26,49.452,0.521l2.603-24.726
			c-15.877-2.863-40.863-4.685-59.343-4.945c-40.082,0-54.658,9.891-54.658,36.699c0,20.301,6.767,32.014,31.233,39.041
			L745.409,715.714"/>
	</g>
</g>
<g>
</g>
<g>
</g>
<g>
</g>
<g>
</g>
<g>
</g>
<g>
</g>
<g>
</g>
<g>
</g>
<g>
</g>
<g>
</g>
<g>
</g>
<g>
</g>
<g>
</g>
<g>
</g>
<g>
</g>
</svg>
