<?xml version="1.0" encoding="utf-8"?>
<!-- Generator: Adobe Illustrator 17.0.0, SVG Export Plug-In . SVG Version: 6.00 Build 0)  -->
<!DOCTYPE svg PUBLIC "-//W3C//DTD SVG 1.1//EN" "http://www.w3.org/Graphics/SVG/1.1/DTD/svg11.dtd">
<svg version="1.1" id="Layer_1" xmlns="http://www.w3.org/2000/svg" xmlns:xlink="http://www.w3.org/1999/xlink" x="0px" y="0px"
	 width="1024px" height="1024px" viewBox="0 0 1024 1024" enable-background="new 0 0 1024 1024" xml:space="preserve">
<g>
	
		<radialGradient id="SVGID_1_" cx="508.8541" cy="638.751" r="262.3509" gradientTransform="matrix(1 0 0 0.1 0 574.8759)" gradientUnits="userSpaceOnUse">
		<stop  offset="0" style="stop-color:#000000;stop-opacity:0.4"/>
		<stop  offset="1" style="stop-color:#FFFFFF;stop-opacity:0"/>
	</radialGradient>
	<path opacity="0.45" fill="url(#SVGID_1_)" d="M876.796,638.756c0,26.339-164.734,47.689-367.943,47.689
		c-203.205,0-367.941-21.349-367.941-47.689c0-26.34,164.736-47.699,367.941-47.699
		C712.062,591.057,876.796,612.416,876.796,638.756z"/>
</g>
<path fill="#BA68C8" d="M171.482,441.043l71.355,78.475l62.671,69.048h8.017c8.712,0,16.604-5.14,20.125-13.098
	c3.527-7.969,2.017-17.263-3.841-23.715L186.754,392.411c-4.326-4.755-10.553-7.375-16.939-7.191
	c-6.426,0.194-12.448,3.186-16.481,8.187L24.949,552.756c-5.314,6.595-6.371,15.658-2.71,23.303
	c3.656,7.643,11.379,12.507,19.85,12.507h9.363L171.482,441.043z"/>
<polygon fill="#8E24AA" points="266.211,544.471 87.33,544.471 51.453,588.567 305.508,588.567 "/>
<polygon fill="#B31900" points="265.827,382.984 300.271,338.969 50.613,338.969 90.28,382.984 "/>
<path fill="#F0562F" d="M331.671,351.478c-3.659-7.643-11.377-12.508-19.851-12.508h-11.549l-34.443,44.015l-83.399,103.508
	l-78.727-86.582l22.753,25.251l-22.753-25.251l-13.559-16.926h0.138l-39.667-44.015H40.385c-8.712,0-16.601,5.139-20.125,13.104
	c-3.524,7.969-2.02,17.262,3.841,23.709l143.051,159.344c4.33,4.761,10.554,7.373,16.944,7.189
	c6.426-0.188,12.445-3.18,16.481-8.187l128.381-159.344C334.277,368.186,335.329,359.121,331.671,351.478z"/>
<polygon fill="#BA68C8" points="236.519,512.573 265.624,481.163 208.072,415.856 176.376,446.425 "/>
<g>
	<path id="path4173-9" inkscape:connector-curvature="0" fill="#8E24AA" d="M487.338,407.957h-40.95l-32.342,129.891
		c-1.565,6.521-3.391,13.563-4.434,20.084h-6.521c-1.304-6.521-2.869-13.563-4.434-20.084l-32.603-129.891h-40.95l49.035,169.015
		c1.565,6.521,7.042,10.955,14.085,10.955h36.255c7.042,0,12.52-4.434,14.085-10.955L487.338,407.957"/>
	<path id="path4175-2" inkscape:connector-curvature="0" fill="#8E24AA" d="M516.738,402.48c-7.564,0-11.215,3.912-11.215,11.215
		v14.085c0,7.564,3.652,11.216,11.215,11.216h17.215c7.564,0,11.216-3.652,11.216-11.215v-14.085
		c0-7.303-3.652-11.216-11.216-11.216H516.738 M544.646,587.927V459.34h-38.341v128.587H544.646"/>
	<path id="path4177-3" inkscape:connector-curvature="0" fill="#8E24AA" d="M634.211,540.196
		c12.781,3.652,18.258,4.173,18.258,11.998c0,8.346-5.999,9.651-32.342,9.651c-17.215,0-35.211,0-44.601-0.522l-2.347,25.039
		c24.779,4.173,47.992,4.434,57.643,4.434c41.471,0,58.947-7.564,58.947-39.385c0-22.431-9.911-31.299-31.821-37.559l-32.864-8.868
		c-12.259-3.391-16.954-3.652-16.954-11.476c0-8.607,4.695-8.607,24.779-8.607c16.171,0,33.125,0.261,49.557,0.522l2.608-24.779
		c-15.91-2.869-40.95-4.695-59.468-4.956c-40.167,0-54.773,9.911-54.773,36.776c0,20.344,6.781,32.082,31.299,39.124
		L634.211,540.196"/>
	<path id="path4179-9" inkscape:connector-curvature="0" fill="#8E24AA" d="M726.112,402.48c-7.564,0-11.215,3.912-11.215,11.215
		v14.085c0,7.564,3.652,11.216,11.215,11.216h17.215c7.564,0,11.215-3.652,11.215-11.215v-14.085
		c0-7.303-3.652-11.216-11.215-11.216H726.112 M754.02,587.927V459.34h-38.341v128.587H754.02"/>
	<path id="path4181-1" inkscape:connector-curvature="0" fill="#8E24AA" d="M836.543,485.162h35.733V459.34h-35.733v-35.994h-38.341
		v35.994l-22.692,1.304v24.518h22.692v68.858c0,23.474,13.563,37.037,36.776,37.037c9.129,0,26.604-1.826,36.255-5.216
		l-4.173-26.865h-16.432c-10.433,0-14.085-3.391-14.085-13.041L836.543,485.162"/>
	<path id="path4183-5" inkscape:connector-curvature="0" fill="#8E24AA" d="M950.565,540.196
		c12.781,3.652,18.258,4.173,18.258,11.998c0,8.346-5.999,9.651-32.342,9.651c-17.215,0-35.211,0-44.601-0.522l-2.347,25.039
		c24.779,4.173,47.992,4.434,57.643,4.434c41.471,0,58.947-7.564,58.947-39.385c0-22.431-9.911-31.299-31.821-37.559l-32.864-8.868
		c-12.259-3.391-16.954-3.652-16.954-11.476c0-8.607,4.695-8.607,24.779-8.607c16.171,0,33.125,0.261,49.557,0.522l2.608-24.779
		c-15.91-2.869-40.95-4.695-59.468-4.956c-40.167,0-54.774,9.911-54.774,36.776c0,20.344,6.781,32.082,31.299,39.124
		L950.565,540.196"/>
</g>
</svg>
