<svg xmlns="http://www.w3.org/2000/svg" xmlns:xlink="http://www.w3.org/1999/xlink" version="1.1" x="0px" y="0px" viewBox="0 0 100 125" enable-background="new 0 0 100 100" xml:space="preserve"><path d="M77.5,95c4.1,0,7.5-3.4,7.5-7.5v-75C85,8.4,81.6,5,77.5,5h-55C18.4,5,15,8.4,15,12.5v75c0,4.1,3.4,7.5,7.5,7.5H77.5z   M20,87.5v-75c0-1.4,1.1-2.5,2.5-2.5h55c1.4,0,2.5,1.1,2.5,2.5v75c0,1.4-1.1,2.5-2.5,2.5h-55C21.1,90,20,88.9,20,87.5z"/><circle cx="50" cy="85" r="2.5"/><path d="M75,15H25v65h50V15z M70,75H30V20h40V75z"/><text x="0" y="115" fill="#000000" font-size="5px" font-weight="bold" font-family="'Helvetica Neue', Helvetica, Arial-Unicode, Arial, Sans-serif">Created by Arthur Shlain</text><text x="0" y="120" fill="#000000" font-size="5px" font-weight="bold" font-family="'Helvetica Neue', Helvetica, Arial-Unicode, Arial, Sans-serif">from the Noun Project</text></svg>