<?xml version="1.0" encoding="UTF-8" standalone="no"?>
<svg
   xmlns:dc="http://purl.org/dc/elements/1.1/"
   xmlns:cc="http://creativecommons.org/ns#"
   xmlns:rdf="http://www.w3.org/1999/02/22-rdf-syntax-ns#"
   xmlns:svg="http://www.w3.org/2000/svg"
   xmlns="http://www.w3.org/2000/svg"
   xmlns:sodipodi="http://sodipodi.sourceforge.net/DTD/sodipodi-0.dtd"
   xmlns:inkscape="http://www.inkscape.org/namespaces/inkscape"
   width="100"
   height="100"
   viewBox="0 0 100 100"
   version="1.1"
   id="svg2"
   inkscape:version="0.91 r"
   sodipodi:docname="jlp_component_3_yesno.svg"
   inkscape:export-filename="/home/mhaidarh/all/repo/agnium/jlp-brand/components/jlp_component_3_yesno.png"
   inkscape:export-xdpi="90"
   inkscape:export-ydpi="90">
  <metadata
     id="metadata30">
    <rdf:RDF>
      <cc:Work
         rdf:about="">
        <dc:format>image/svg+xml</dc:format>
        <dc:type
           rdf:resource="http://purl.org/dc/dcmitype/StillImage" />
        <dc:title>JakartaLP Brand Asset</dc:title>
      </cc:Work>
    </rdf:RDF>
  </metadata>
  <sodipodi:namedview
     pagecolor="#ffffff"
     bordercolor="#666666"
     borderopacity="1"
     objecttolerance="10"
     gridtolerance="10"
     guidetolerance="10"
     inkscape:pageopacity="0"
     inkscape:pageshadow="2"
     inkscape:window-width="1366"
     inkscape:window-height="744"
     id="namedview28"
     showgrid="false"
     inkscape:zoom="1.2083824"
     inkscape:cx="226.0945"
     inkscape:cy="-49.57382"
     inkscape:window-x="0"
     inkscape:window-y="24"
     inkscape:window-maximized="1"
     inkscape:current-layer="layer1"
     inkscape:snap-bbox="true"
     inkscape:bbox-paths="true"
     inkscape:bbox-nodes="true"
     inkscape:snap-bbox-edge-midpoints="true"
     inkscape:snap-bbox-midpoints="true"
     inkscape:object-nodes="true"
     inkscape:snap-intersection-paths="true"
     inkscape:snap-smooth-nodes="true"
     inkscape:object-paths="true"
     showguides="false"
     inkscape:snap-page="true" />
  <!-- Generator: Sketch 3.0.3 (7892) - http://www.bohemiancoding.com/sketch -->
  <title
     id="title4">JakartaLP Brand Asset</title>
  <desc
     id="desc6">Created with Sketch.</desc>
  <defs
     id="defs8">
    <filter
       x="-0.5"
       y="-0.5"
       width="2"
       height="2"
       filterUnits="objectBoundingBox"
       id="filter-1">
      <feOffset
         dx="2"
         dy="2"
         in="SourceAlpha"
         result="shadowOffsetOuter1"
         id="feOffset11" />
      <feGaussianBlur
         stdDeviation="2"
         in="shadowOffsetOuter1"
         result="shadowBlurOuter1"
         id="feGaussianBlur13" />
      <feColorMatrix
         values="0 0 0 0 0   0 0 0 0 0   0 0 0 0 0  0 0 0 0.35 0"
         in="shadowBlurOuter1"
         type="matrix"
         result="shadowMatrixOuter1"
         id="feColorMatrix15" />
      <feMerge
         id="feMerge17">
        <feMergeNode
           in="shadowMatrixOuter1"
           id="feMergeNode19" />
        <feMergeNode
           in="SourceGraphic"
           id="feMergeNode21" />
      </feMerge>
    </filter>
    <filter
       id="filter-1-3"
       filterUnits="objectBoundingBox"
       height="2"
       width="2"
       y="-0.5"
       x="-0.5">
      <feOffset
         id="feOffset11-5"
         result="shadowOffsetOuter1"
         in="SourceAlpha"
         dy="2"
         dx="2" />
      <feGaussianBlur
         id="feGaussianBlur13-9"
         result="shadowBlurOuter1"
         in="shadowOffsetOuter1"
         stdDeviation="2" />
      <feColorMatrix
         id="feColorMatrix15-6"
         result="shadowMatrixOuter1"
         type="matrix"
         in="shadowBlurOuter1"
         values="0 0 0 0 0   0 0 0 0 0   0 0 0 0 0  0 0 0 0.35 0" />
      <feMerge
         id="feMerge17-3">
        <feMergeNode
           id="feMergeNode19-1"
           in="shadowMatrixOuter1" />
        <feMergeNode
           id="feMergeNode21-2"
           in="SourceGraphic" />
      </feMerge>
    </filter>
    <filter
       id="filter-1-1"
       filterUnits="objectBoundingBox"
       height="2"
       width="2"
       y="-0.5"
       x="-0.5">
      <feOffset
         id="feOffset11-8"
         result="shadowOffsetOuter1"
         in="SourceAlpha"
         dy="2"
         dx="2" />
      <feGaussianBlur
         id="feGaussianBlur13-90"
         result="shadowBlurOuter1"
         in="shadowOffsetOuter1"
         stdDeviation="2" />
      <feColorMatrix
         id="feColorMatrix15-3"
         result="shadowMatrixOuter1"
         type="matrix"
         in="shadowBlurOuter1"
         values="0 0 0 0 0   0 0 0 0 0   0 0 0 0 0  0 0 0 0.35 0" />
      <feMerge
         id="feMerge17-7">
        <feMergeNode
           id="feMergeNode19-6"
           in="shadowMatrixOuter1" />
        <feMergeNode
           id="feMergeNode21-3"
           in="SourceGraphic" />
      </feMerge>
    </filter>
    <filter
       id="filter-1-36"
       filterUnits="objectBoundingBox"
       height="2"
       width="2"
       y="-0.5"
       x="-0.5">
      <feOffset
         id="feOffset11-7"
         result="shadowOffsetOuter1"
         in="SourceAlpha"
         dy="2"
         dx="2" />
      <feGaussianBlur
         id="feGaussianBlur13-4"
         result="shadowBlurOuter1"
         in="shadowOffsetOuter1"
         stdDeviation="2" />
      <feColorMatrix
         id="feColorMatrix15-65"
         result="shadowMatrixOuter1"
         type="matrix"
         in="shadowBlurOuter1"
         values="0 0 0 0 0   0 0 0 0 0   0 0 0 0 0  0 0 0 0.35 0" />
      <feMerge
         id="feMerge17-6">
        <feMergeNode
           id="feMergeNode19-7"
           in="shadowMatrixOuter1" />
        <feMergeNode
           id="feMergeNode21-8"
           in="SourceGraphic" />
      </feMerge>
    </filter>
    <filter
       id="filter-1-6"
       filterUnits="objectBoundingBox"
       height="2"
       width="2"
       y="-0.5"
       x="-0.5">
      <feOffset
         id="feOffset11-71"
         result="shadowOffsetOuter1"
         in="SourceAlpha"
         dy="2"
         dx="2" />
      <feGaussianBlur
         id="feGaussianBlur13-6"
         result="shadowBlurOuter1"
         in="shadowOffsetOuter1"
         stdDeviation="2" />
      <feColorMatrix
         id="feColorMatrix15-7"
         result="shadowMatrixOuter1"
         type="matrix"
         in="shadowBlurOuter1"
         values="0 0 0 0 0   0 0 0 0 0   0 0 0 0 0  0 0 0 0.35 0" />
      <feMerge
         id="feMerge17-8">
        <feMergeNode
           id="feMergeNode19-63"
           in="shadowMatrixOuter1" />
        <feMergeNode
           id="feMergeNode21-5"
           in="SourceGraphic" />
      </feMerge>
    </filter>
  </defs>
  <g
     inkscape:groupmode="layer"
     id="layer1"
     inkscape:label="base"
     style="display:inline"
     transform="translate(0,-700)">
    <g
       style="display:inline;fill:#b71c1c"
       id="g4249-1-3"
       transform="translate(-42.608814,1702.5518)" />
    <g
       transform="translate(-581.41302,324.36922)"
       inkscape:label="bg"
       id="layer2-1"
       style="fill:#b71c1c" />
    <g
       id="g4508"
       style="fill:#ffffff;fill-opacity:1"
       transform="translate(-266.40024,76.45)">
      <path
         id="path4287"
         d="m 338.90024,677.3 c -0.6,0 -1.1,0.1 -1.7,0.2 -0.9,-2.3 -3.2,-4 -5.8,-4 -0.6,0 -1.1,0.1 -1.7,0.2 -0.9,-2.3 -3.2,-4 -5.8,-4 -0.4,0 -0.8,0 -1.3,0.1 l 0,-7 c 0,-3.4 -2.8,-6.3 -6.3,-6.3 -3.5,0 -6.3,2.8 -6.3,6.3 l 0,14.7 -6.6,6.7 c -0.5,0.5 -0.7,1.1 -0.7,1.8 l 0,17.5 c 0,0.7 0.3,1.3 0.7,1.8 l 6.8,6.8 0,4 c 0,1.4 1.1,2.5 2.5,2.5 1.4,0 2.5,-1.1 2.5,-2.5 l 0,-5 c 0,-0.7 -0.3,-1.3 -0.7,-1.8 l -6.8,-6.8 0,-15.5 2.5,-2.5 0,11.5 c 0,1.4 1.1,2.5 2.5,2.5 1.4,0 2.5,-1.1 2.5,-2.5 l 0,-33.1 c 0,-0.7 0.6,-1.3 1.3,-1.3 0.7,0 1.3,0.6 1.3,1.3 l 0,23.1 c 0,1.4 1.1,2.5 2.5,2.5 1.4,0 2.5,-1.1 2.5,-2.5 l 0,-10 c 0,-0.7 0.6,-1.3 1.3,-1.3 0.7,0 1.3,0.6 1.3,1.3 l 0,10 c 0,1.4 1.1,2.5 2.5,2.5 1.4,0 2.5,-1.1 2.5,-2.5 l 0,-6.3 c 0,-0.7 0.6,-1.3 1.3,-1.3 0.7,0 1.3,0.6 1.3,1.3 l 0,6.3 c 0,1.4 1.1,2.5 2.5,2.5 1.4,0 2.5,-1.1 2.5,-2.5 l 0,-2.5 c 0,-0.7 0.6,-1.3 1.3,-1.3 0.7,0 1.3,0.6 1.3,1.3 l 0,19.6 -2.4,7.1 c -0.1,0.3 -0.1,0.5 -0.1,0.8 l 0,3.2 0,1.8 c 0,1.4 1.1,2.5 2.5,2.5 1.4,0 2.5,-1.1 2.5,-2.5 l 0,-4.6 2.4,-7.1 c 0.1,-0.3 0.1,-0.5 0.1,-0.8 l 0,-20 c -0.4,-3.4 -3.3,-6.2 -6.7,-6.2 z"
         inkscape:connector-curvature="0"
         style="fill:#ffffff;fill-opacity:1" />
      <path
         id="path4289"
         d="m 341.40024,628.5 c -11,0 -20,9 -20,20 0,11 9,20 20,20 11,0 20,-9 20,-20 0,-11 -9,-20 -20,-20 z m 0,35 c -8.3,0 -15,-6.7 -15,-15 0,-8.3 6.7,-15 15,-15 8.3,0 15,6.7 15,15 0,8.3 -6.7,15 -15,15 z"
         inkscape:connector-curvature="0"
         style="fill:#ffffff;fill-opacity:1" />
      <polygon
         transform="translate(266.40024,623.5)"
         id="polygon4291"
         points="83.8,30.3 78.5,25 83.8,19.7 80.3,16.2 75,21.5 69.7,16.2 66.2,19.7 71.5,25 66.2,30.3 69.7,33.8 75,28.5 80.3,33.8 "
         style="fill:#ffffff;fill-opacity:1" />
      <path
         id="path4293"
         d="m 311.40024,648.5 c 0,-11 -9,-20 -20,-20 -11,0 -20,9 -20,20 0,11 9,20 20,20 11,0 20,-9 20,-20 z m -20,15 c -8.3,0 -15,-6.7 -15,-15 0,-8.3 6.7,-15 15,-15 8.3,0 15,6.7 15,15 0,8.3 -6.7,15 -15,15 z"
         inkscape:connector-curvature="0"
         style="fill:#ffffff;fill-opacity:1" />
      <polygon
         transform="translate(266.40024,623.5)"
         id="polygon4295"
         points="14.5,24.7 23.3,33.5 35.7,21.2 32.2,17.6 23.3,26.5 18,21.2 "
         style="fill:#ffffff;fill-opacity:1" />
    </g>
  </g>
</svg>
