<?xml version="1.0" encoding="UTF-8" standalone="no"?>
<svg
   xmlns:dc="http://purl.org/dc/elements/1.1/"
   xmlns:cc="http://creativecommons.org/ns#"
   xmlns:rdf="http://www.w3.org/1999/02/22-rdf-syntax-ns#"
   xmlns:svg="http://www.w3.org/2000/svg"
   xmlns="http://www.w3.org/2000/svg"
   xmlns:sodipodi="http://sodipodi.sourceforge.net/DTD/sodipodi-0.dtd"
   xmlns:inkscape="http://www.inkscape.org/namespaces/inkscape"
   width="500"
   height="100"
   viewBox="0 0 500 100"
   version="1.1"
   id="svg2"
   inkscape:version="0.91 r"
   sodipodi:docname="jlp_poster_3_crowd-coding.svg"
   inkscape:export-filename="/home/mhaidarh/all/repo/agnium/jlp-brand/poster/jlp_poster_3_crowd-coding_black.png"
   inkscape:export-xdpi="90"
   inkscape:export-ydpi="90">
  <metadata
     id="metadata30">
    <rdf:RDF>
      <cc:Work
         rdf:about="">
        <dc:format>image/svg+xml</dc:format>
        <dc:type
           rdf:resource="http://purl.org/dc/dcmitype/StillImage" />
        <dc:title>JakartaLP Brand Asset</dc:title>
      </cc:Work>
    </rdf:RDF>
  </metadata>
  <sodipodi:namedview
     pagecolor="#ffffff"
     bordercolor="#666666"
     borderopacity="1"
     objecttolerance="10"
     gridtolerance="10"
     guidetolerance="10"
     inkscape:pageopacity="0"
     inkscape:pageshadow="2"
     inkscape:window-width="1366"
     inkscape:window-height="744"
     id="namedview28"
     showgrid="false"
     inkscape:zoom="2.5869641"
     inkscape:cx="104.47098"
     inkscape:cy="-11.79967"
     inkscape:window-x="0"
     inkscape:window-y="24"
     inkscape:window-maximized="1"
     inkscape:current-layer="layer1"
     inkscape:snap-bbox="true"
     inkscape:bbox-paths="true"
     inkscape:bbox-nodes="true"
     inkscape:snap-bbox-edge-midpoints="true"
     inkscape:snap-bbox-midpoints="true"
     inkscape:object-nodes="true"
     inkscape:snap-intersection-paths="true"
     inkscape:snap-smooth-nodes="true"
     inkscape:object-paths="true"
     showguides="false"
     inkscape:snap-page="true" />
  <!-- Generator: Sketch 3.0.3 (7892) - http://www.bohemiancoding.com/sketch -->
  <title
     id="title4">JakartaLP Brand Asset</title>
  <desc
     id="desc6">Created with Sketch.</desc>
  <defs
     id="defs8">
    <filter
       x="-0.5"
       y="-0.5"
       width="2"
       height="2"
       filterUnits="objectBoundingBox"
       id="filter-1">
      <feOffset
         dx="2"
         dy="2"
         in="SourceAlpha"
         result="shadowOffsetOuter1"
         id="feOffset11" />
      <feGaussianBlur
         stdDeviation="2"
         in="shadowOffsetOuter1"
         result="shadowBlurOuter1"
         id="feGaussianBlur13" />
      <feColorMatrix
         values="0 0 0 0 0   0 0 0 0 0   0 0 0 0 0  0 0 0 0.35 0"
         in="shadowBlurOuter1"
         type="matrix"
         result="shadowMatrixOuter1"
         id="feColorMatrix15" />
      <feMerge
         id="feMerge17">
        <feMergeNode
           in="shadowMatrixOuter1"
           id="feMergeNode19" />
        <feMergeNode
           in="SourceGraphic"
           id="feMergeNode21" />
      </feMerge>
    </filter>
    <filter
       id="filter-1-3"
       filterUnits="objectBoundingBox"
       height="2"
       width="2"
       y="-0.5"
       x="-0.5">
      <feOffset
         id="feOffset11-5"
         result="shadowOffsetOuter1"
         in="SourceAlpha"
         dy="2"
         dx="2" />
      <feGaussianBlur
         id="feGaussianBlur13-9"
         result="shadowBlurOuter1"
         in="shadowOffsetOuter1"
         stdDeviation="2" />
      <feColorMatrix
         id="feColorMatrix15-6"
         result="shadowMatrixOuter1"
         type="matrix"
         in="shadowBlurOuter1"
         values="0 0 0 0 0   0 0 0 0 0   0 0 0 0 0  0 0 0 0.35 0" />
      <feMerge
         id="feMerge17-3">
        <feMergeNode
           id="feMergeNode19-1"
           in="shadowMatrixOuter1" />
        <feMergeNode
           id="feMergeNode21-2"
           in="SourceGraphic" />
      </feMerge>
    </filter>
    <filter
       id="filter-1-1"
       filterUnits="objectBoundingBox"
       height="2"
       width="2"
       y="-0.5"
       x="-0.5">
      <feOffset
         id="feOffset11-8"
         result="shadowOffsetOuter1"
         in="SourceAlpha"
         dy="2"
         dx="2" />
      <feGaussianBlur
         id="feGaussianBlur13-90"
         result="shadowBlurOuter1"
         in="shadowOffsetOuter1"
         stdDeviation="2" />
      <feColorMatrix
         id="feColorMatrix15-3"
         result="shadowMatrixOuter1"
         type="matrix"
         in="shadowBlurOuter1"
         values="0 0 0 0 0   0 0 0 0 0   0 0 0 0 0  0 0 0 0.35 0" />
      <feMerge
         id="feMerge17-7">
        <feMergeNode
           id="feMergeNode19-6"
           in="shadowMatrixOuter1" />
        <feMergeNode
           id="feMergeNode21-3"
           in="SourceGraphic" />
      </feMerge>
    </filter>
    <filter
       id="filter-1-36"
       filterUnits="objectBoundingBox"
       height="2"
       width="2"
       y="-0.5"
       x="-0.5">
      <feOffset
         id="feOffset11-7"
         result="shadowOffsetOuter1"
         in="SourceAlpha"
         dy="2"
         dx="2" />
      <feGaussianBlur
         id="feGaussianBlur13-4"
         result="shadowBlurOuter1"
         in="shadowOffsetOuter1"
         stdDeviation="2" />
      <feColorMatrix
         id="feColorMatrix15-65"
         result="shadowMatrixOuter1"
         type="matrix"
         in="shadowBlurOuter1"
         values="0 0 0 0 0   0 0 0 0 0   0 0 0 0 0  0 0 0 0.35 0" />
      <feMerge
         id="feMerge17-6">
        <feMergeNode
           id="feMergeNode19-7"
           in="shadowMatrixOuter1" />
        <feMergeNode
           id="feMergeNode21-8"
           in="SourceGraphic" />
      </feMerge>
    </filter>
    <filter
       id="filter-1-6"
       filterUnits="objectBoundingBox"
       height="2"
       width="2"
       y="-0.5"
       x="-0.5">
      <feOffset
         id="feOffset11-71"
         result="shadowOffsetOuter1"
         in="SourceAlpha"
         dy="2"
         dx="2" />
      <feGaussianBlur
         id="feGaussianBlur13-6"
         result="shadowBlurOuter1"
         in="shadowOffsetOuter1"
         stdDeviation="2" />
      <feColorMatrix
         id="feColorMatrix15-7"
         result="shadowMatrixOuter1"
         type="matrix"
         in="shadowBlurOuter1"
         values="0 0 0 0 0   0 0 0 0 0   0 0 0 0 0  0 0 0 0.35 0" />
      <feMerge
         id="feMerge17-8">
        <feMergeNode
           id="feMergeNode19-63"
           in="shadowMatrixOuter1" />
        <feMergeNode
           id="feMergeNode21-5"
           in="SourceGraphic" />
      </feMerge>
    </filter>
  </defs>
  <g
     inkscape:groupmode="layer"
     id="layer1"
     inkscape:label="base"
     style="display:inline"
     transform="translate(0,-700)">
    <g
       style="display:inline;fill:#b71c1c"
       id="g4249-1-3"
       transform="translate(-42.608814,1702.5518)" />
    <g
       transform="translate(-581.41302,324.36922)"
       inkscape:label="bg"
       id="layer2-1"
       style="fill:#b71c1c" />
    <g
       id="g4567"
       transform="translate(-145.39409,25.348395)">
      <g
         transform="translate(188.99385,51.45)"
         style="fill:#f44336"
         id="g4508">
        <path
           style="fill:#f44336"
           inkscape:connector-curvature="0"
           d="m 338.90024,677.3 c -0.6,0 -1.1,0.1 -1.7,0.2 -0.9,-2.3 -3.2,-4 -5.8,-4 -0.6,0 -1.1,0.1 -1.7,0.2 -0.9,-2.3 -3.2,-4 -5.8,-4 -0.4,0 -0.8,0 -1.3,0.1 l 0,-7 c 0,-3.4 -2.8,-6.3 -6.3,-6.3 -3.5,0 -6.3,2.8 -6.3,6.3 l 0,14.7 -6.6,6.7 c -0.5,0.5 -0.7,1.1 -0.7,1.8 l 0,17.5 c 0,0.7 0.3,1.3 0.7,1.8 l 6.8,6.8 0,4 c 0,1.4 1.1,2.5 2.5,2.5 1.4,0 2.5,-1.1 2.5,-2.5 l 0,-5 c 0,-0.7 -0.3,-1.3 -0.7,-1.8 l -6.8,-6.8 0,-15.5 2.5,-2.5 0,11.5 c 0,1.4 1.1,2.5 2.5,2.5 1.4,0 2.5,-1.1 2.5,-2.5 l 0,-33.1 c 0,-0.7 0.6,-1.3 1.3,-1.3 0.7,0 1.3,0.6 1.3,1.3 l 0,23.1 c 0,1.4 1.1,2.5 2.5,2.5 1.4,0 2.5,-1.1 2.5,-2.5 l 0,-10 c 0,-0.7 0.6,-1.3 1.3,-1.3 0.7,0 1.3,0.6 1.3,1.3 l 0,10 c 0,1.4 1.1,2.5 2.5,2.5 1.4,0 2.5,-1.1 2.5,-2.5 l 0,-6.3 c 0,-0.7 0.6,-1.3 1.3,-1.3 0.7,0 1.3,0.6 1.3,1.3 l 0,6.3 c 0,1.4 1.1,2.5 2.5,2.5 1.4,0 2.5,-1.1 2.5,-2.5 l 0,-2.5 c 0,-0.7 0.6,-1.3 1.3,-1.3 0.7,0 1.3,0.6 1.3,1.3 l 0,19.6 -2.4,7.1 c -0.1,0.3 -0.1,0.5 -0.1,0.8 l 0,3.2 0,1.8 c 0,1.4 1.1,2.5 2.5,2.5 1.4,0 2.5,-1.1 2.5,-2.5 l 0,-4.6 2.4,-7.1 c 0.1,-0.3 0.1,-0.5 0.1,-0.8 l 0,-20 c -0.4,-3.4 -3.3,-6.2 -6.7,-6.2 z"
           id="path4287" />
        <path
           style="fill:#f44336"
           inkscape:connector-curvature="0"
           d="m 341.40024,628.5 c -11,0 -20,9 -20,20 0,11 9,20 20,20 11,0 20,-9 20,-20 0,-11 -9,-20 -20,-20 z m 0,35 c -8.3,0 -15,-6.7 -15,-15 0,-8.3 6.7,-15 15,-15 8.3,0 15,6.7 15,15 0,8.3 -6.7,15 -15,15 z"
           id="path4289" />
        <polygon
           style="fill:#f44336"
           points="75,21.5 69.7,16.2 66.2,19.7 71.5,25 66.2,30.3 69.7,33.8 75,28.5 80.3,33.8 83.8,30.3 78.5,25 83.8,19.7 80.3,16.2 "
           id="polygon4291"
           transform="translate(266.40024,623.5)" />
        <path
           style="fill:#f44336"
           inkscape:connector-curvature="0"
           d="m 311.40024,648.5 c 0,-11 -9,-20 -20,-20 -11,0 -20,9 -20,20 0,11 9,20 20,20 11,0 20,-9 20,-20 z m -20,15 c -8.3,0 -15,-6.7 -15,-15 0,-8.3 6.7,-15 15,-15 8.3,0 15,6.7 15,15 0,8.3 -6.7,15 -15,15 z"
           id="path4293" />
        <polygon
           style="fill:#f44336"
           points="23.3,26.5 18,21.2 14.5,24.7 23.3,33.5 35.7,21.2 32.2,17.6 "
           id="polygon4295"
           transform="translate(266.40024,623.5)" />
      </g>
      <g
         style="fill:#f44336"
         transform="translate(116.5679,30)"
         id="g4479">
        <path
           style="fill:#f44336"
           inkscape:connector-curvature="0"
           d="m 206.32619,650 -75,0 c -4.1,0 -7.5,3.4 -7.5,7.5 l 0,42.5 c 0,1.9 0.7,3.7 1.9,5 -1.2,1.3 -1.9,3.1 -1.9,5 l 0,22.5 c 0,4.1 3.4,7.5 7.5,7.5 l 75,0 c 4.1,0 7.5,-3.4 7.5,-7.5 l 0,-22.5 c 0,-1.9 -0.7,-3.7 -1.9,-5 1.2,-1.3 1.9,-3.1 1.9,-5 l 0,-42.5 c 0,-4.1 -3.4,-7.5 -7.5,-7.5 z m 2.5,82.5 c 0,1.4 -1.1,2.5 -2.5,2.5 l -75,0 c -1.4,0 -2.5,-1.1 -2.5,-2.5 l 0,-22.5 c 0,-1.4 1.1,-2.5 2.5,-2.5 l 75,0 c 1.4,0 2.5,1.1 2.5,2.5 l 0,22.5 z m 0,-32.5 c 0,1.4 -1.1,2.5 -2.5,2.5 l -75,0 c -1.4,0 -2.5,-1.1 -2.5,-2.5 l 0,-42.5 c 0,-1.4 1.1,-2.5 2.5,-2.5 l 75,0 c 1.4,0 2.5,1.1 2.5,2.5 l 0,42.5 z"
           id="path4318" />
        <path
           style="fill:#f44336"
           inkscape:connector-curvature="0"
           d="m 133.82619,697.5 70,0 0,-37.5 -70,0 0,37.5 z m 5,-32.5 60,0 0,27.5 -60,0 0,-27.5 z"
           id="path4320" />
        <rect
           style="fill:#f44336"
           x="136.32619"
           y="718.79999"
           width="5"
           height="5"
           id="rect4322" />
        <rect
           style="fill:#f44336"
           x="143.82619"
           y="718.79999"
           width="5"
           height="5"
           id="rect4324" />
        <rect
           style="fill:#f44336"
           x="151.32619"
           y="718.79999"
           width="5"
           height="5"
           id="rect4326" />
        <rect
           style="fill:#f44336"
           x="158.82619"
           y="718.79999"
           width="5"
           height="5"
           id="rect4328" />
        <rect
           style="fill:#f44336"
           x="166.32619"
           y="718.79999"
           width="5"
           height="5"
           id="rect4330" />
        <rect
           style="fill:#f44336"
           x="173.82619"
           y="718.79999"
           width="5"
           height="5"
           id="rect4332" />
        <rect
           style="fill:#f44336"
           x="181.32619"
           y="718.79999"
           width="5"
           height="5"
           id="rect4334" />
        <rect
           style="fill:#f44336"
           x="188.82619"
           y="718.79999"
           width="5"
           height="5"
           id="rect4336" />
        <rect
           style="fill:#f44336"
           x="196.32619"
           y="718.79999"
           width="5"
           height="5"
           id="rect4338" />
        <rect
           style="fill:#f44336"
           x="136.32619"
           y="711.29999"
           width="5"
           height="5"
           id="rect4340" />
        <rect
           style="fill:#f44336"
           x="143.82619"
           y="711.29999"
           width="5"
           height="5"
           id="rect4342" />
        <rect
           style="fill:#f44336"
           x="151.32619"
           y="711.29999"
           width="5"
           height="5"
           id="rect4344" />
        <rect
           style="fill:#f44336"
           x="158.82619"
           y="711.29999"
           width="5"
           height="5"
           id="rect4346" />
        <rect
           style="fill:#f44336"
           x="166.32619"
           y="711.29999"
           width="5"
           height="5"
           id="rect4348" />
        <rect
           style="fill:#f44336"
           x="173.82619"
           y="711.29999"
           width="5"
           height="5"
           id="rect4350" />
        <rect
           style="fill:#f44336"
           x="181.32619"
           y="711.29999"
           width="5"
           height="5"
           id="rect4352" />
        <rect
           style="fill:#f44336"
           x="188.82619"
           y="711.29999"
           width="5"
           height="5"
           id="rect4354" />
        <rect
           style="fill:#f44336"
           x="196.32619"
           y="711.29999"
           width="5"
           height="5"
           id="rect4356" />
        <rect
           style="fill:#f44336"
           x="136.32619"
           y="726.29999"
           width="5"
           height="5"
           id="rect4358" />
        <rect
           style="fill:#f44336"
           x="143.82619"
           y="726.29999"
           width="5"
           height="5"
           id="rect4360" />
        <rect
           style="fill:#f44336"
           x="151.32619"
           y="726.29999"
           width="5"
           height="5"
           id="rect4362" />
        <rect
           style="fill:#f44336"
           x="181.32619"
           y="726.29999"
           width="5"
           height="5"
           id="rect4364" />
        <rect
           style="fill:#f44336"
           x="188.82619"
           y="726.29999"
           width="5"
           height="5"
           id="rect4366" />
        <rect
           style="fill:#f44336"
           x="196.32619"
           y="726.29999"
           width="5"
           height="5"
           id="rect4368" />
        <rect
           style="fill:#f44336"
           x="158.82619"
           y="726.29999"
           width="20"
           height="5"
           id="rect4370" />
      </g>
      <g
         transform="translate(-22.60006,-45)"
         style="fill:#f44336"
         id="g4515">
        <path
           style="fill:#f44336"
           inkscape:connector-curvature="0"
           d="m 445.49415,815 c 4.1,0 7.5,-3.4 7.5,-7.5 l 0,-75 c 0,-4.1 -3.4,-7.5 -7.5,-7.5 l -55,0 c -4.1,0 -7.5,3.4 -7.5,7.5 l 0,75 c 0,4.1 3.4,7.5 7.5,7.5 l 55,0 z m -57.5,-7.5 0,-75 c 0,-1.4 1.1,-2.5 2.5,-2.5 l 55,0 c 1.4,0 2.5,1.1 2.5,2.5 l 0,75 c 0,1.4 -1.1,2.5 -2.5,2.5 l -55,0 c -1.4,0 -2.5,-1.1 -2.5,-2.5 z"
           id="path4415" />
        <circle
           style="fill:#f44336"
           cx="417.99414"
           cy="805"
           r="2.5"
           id="circle4417" />
        <path
           style="fill:#f44336"
           inkscape:connector-curvature="0"
           d="m 442.99415,735 -50,0 0,65 50,0 0,-65 z m -5,60 -40,0 0,-55 40,0 0,55 z"
           id="path4419" />
      </g>
      <path
         d="m 210.00829,680.00688 c -12.34538,-1.06093 -17.36069,3.85793 -17.36069,12.92407 l 0,18.90387 c 0,5.88334 -0.96448,5.88334 -5.49755,7.33007 l 0,6.55848 c 4.24372,1.63962 5.88335,2.02541 5.88335,6.94427 l 0,24.40142 c 0,9.06614 5.01531,13.985 17.36069,12.92407 l 0,-5.88335 c -6.55849,0 -8.391,-2.02541 -8.391,-7.71586 l 0,-22.27955 c -0.0964,-6.75138 -2.02542,-9.45193 -9.25904,-11.67024 7.04073,-1.35028 8.96969,-4.05083 8.87324,-12.05604 l 0,-16.68556 c 0,-5.69045 1.83252,-7.81231 8.391,-7.81231 l 0,-5.88334 z"
         style="font-style:normal;font-variant:normal;font-weight:500;font-stretch:normal;font-size:96.44828033px;line-height:125%;font-family:'Exo 2.0';-inkscape-font-specification:'Exo 2.0 Medium';letter-spacing:0px;word-spacing:0px;fill:#f44336;fill-opacity:1;stroke:none;stroke-width:1px;stroke-linecap:butt;stroke-linejoin:miter;stroke-opacity:1"
         id="path4561"
         inkscape:connector-curvature="0" />
      <path
         d="m 580.77989,685.19343 c 6.55848,0 8.391,2.12186 8.391,7.81231 l 0,16.68555 c -0.0965,8.00521 1.83251,10.70576 8.87324,12.05604 -7.23362,2.21831 -9.16259,4.91886 -9.25904,11.67025 l 0,22.27954 c 0,5.69046 -1.83251,7.71587 -8.391,7.71587 l 0,5.88334 c 12.44183,1.06093 17.36069,-3.85793 17.36069,-12.92407 l 0,-24.40142 c 0,-4.91886 1.73607,-5.30465 5.88335,-6.94427 l 0,-6.55848 c -4.53307,-1.44673 -5.49755,-1.44673 -5.49755,-7.33007 l 0,-18.90387 c 0,-9.06614 -4.91886,-13.985 -17.36069,-12.92407 l 0,5.88335 z"
         style="font-style:normal;font-variant:normal;font-weight:500;font-stretch:normal;font-size:96.44828033px;line-height:125%;font-family:'Exo 2.0';-inkscape-font-specification:'Exo 2.0 Medium';letter-spacing:0px;word-spacing:0px;fill:#f44336;fill-opacity:1;stroke:none;stroke-width:1px;stroke-linecap:butt;stroke-linejoin:miter;stroke-opacity:1"
         id="path4563"
         inkscape:connector-curvature="0" />
    </g>
  </g>
</svg>
