<svg xmlns="http://www.w3.org/2000/svg" xmlns:xlink="http://www.w3.org/1999/xlink" version="1.1" x="0px" y="0px" viewBox="0 0 100 125" enable-background="new 0 0 100 100" xml:space="preserve"><path d="M87.5,5h-75C8.4,5,5,8.4,5,12.5V55c0,1.9,0.7,3.7,1.9,5C5.7,61.3,5,63.1,5,65v22.5c0,4.1,3.4,7.5,7.5,7.5h75  c4.1,0,7.5-3.4,7.5-7.5V65c0-1.9-0.7-3.7-1.9-5c1.2-1.3,1.9-3.1,1.9-5V12.5C95,8.4,91.6,5,87.5,5z M90,87.5c0,1.4-1.1,2.5-2.5,2.5  h-75c-1.4,0-2.5-1.1-2.5-2.5V65c0-1.4,1.1-2.5,2.5-2.5h75c1.4,0,2.5,1.1,2.5,2.5V87.5z M90,55c0,1.4-1.1,2.5-2.5,2.5h-75  c-1.4,0-2.5-1.1-2.5-2.5V12.5c0-1.4,1.1-2.5,2.5-2.5h75c1.4,0,2.5,1.1,2.5,2.5V55z"/><path d="M15,52.5h70V15H15V52.5z M20,20h60v27.5H20V20z"/><rect x="17.5" y="73.8" width="5" height="5"/><rect x="25" y="73.8" width="5" height="5"/><rect x="32.5" y="73.8" width="5" height="5"/><rect x="40" y="73.8" width="5" height="5"/><rect x="47.5" y="73.8" width="5" height="5"/><rect x="55" y="73.8" width="5" height="5"/><rect x="62.5" y="73.8" width="5" height="5"/><rect x="70" y="73.8" width="5" height="5"/><rect x="77.5" y="73.8" width="5" height="5"/><rect x="17.5" y="66.3" width="5" height="5"/><rect x="25" y="66.3" width="5" height="5"/><rect x="32.5" y="66.3" width="5" height="5"/><rect x="40" y="66.3" width="5" height="5"/><rect x="47.5" y="66.3" width="5" height="5"/><rect x="55" y="66.3" width="5" height="5"/><rect x="62.5" y="66.3" width="5" height="5"/><rect x="70" y="66.3" width="5" height="5"/><rect x="77.5" y="66.3" width="5" height="5"/><rect x="17.5" y="81.3" width="5" height="5"/><rect x="25" y="81.3" width="5" height="5"/><rect x="32.5" y="81.3" width="5" height="5"/><rect x="62.5" y="81.3" width="5" height="5"/><rect x="70" y="81.3" width="5" height="5"/><rect x="77.5" y="81.3" width="5" height="5"/><rect x="40" y="81.3" width="20" height="5"/><text x="0" y="115" fill="#000000" font-size="5px" font-weight="bold" font-family="'Helvetica Neue', Helvetica, Arial-Unicode, Arial, Sans-serif">Created by Arthur Shlain</text><text x="0" y="120" fill="#000000" font-size="5px" font-weight="bold" font-family="'Helvetica Neue', Helvetica, Arial-Unicode, Arial, Sans-serif">from the Noun Project</text></svg>