<svg xmlns="http://www.w3.org/2000/svg" xmlns:xlink="http://www.w3.org/1999/xlink" version="1.1" x="0px" y="0px" viewBox="0 0 64 80" enable-background="new 0 0 64 64" xml:space="preserve"><g><path d="M64,49.674H25V19.34h39V49.674z M27,47.674h35V21.34H27V47.674z"/><rect x="43.5" y="48.674" width="2" height="4.84"/><rect x="34.252" y="53.168" width="20.496" height="2"/><path d="M22.698,55.168H0V8.832h22.698V55.168z M2,53.168h18.698V10.832H2V53.168z"/><rect x="1.123" y="17.334" width="20.575" height="2"/><rect x="5.313" y="24.48" width="12.197" height="2"/><rect x="5.313" y="29.533" width="12.197" height="2"/><rect x="5.313" y="34.584" width="12.197" height="2"/><rect x="5.313" y="39.637" width="12.197" height="2"/><rect x="9.501" y="46.783" width="3.819" height="2"/></g><text x="0" y="79" fill="#000000" font-size="5px" font-weight="bold" font-family="'Helvetica Neue', Helvetica, Arial-Unicode, Arial, Sans-serif">Created by Creative Stall</text><text x="0" y="84" fill="#000000" font-size="5px" font-weight="bold" font-family="'Helvetica Neue', Helvetica, Arial-Unicode, Arial, Sans-serif">from the Noun Project</text></svg>