<svg xmlns="http://www.w3.org/2000/svg" xmlns:xlink="http://www.w3.org/1999/xlink" version="1.1" x="0px" y="0px" viewBox="0 0 100 125" enable-background="new 0 0 100 100" xml:space="preserve"><path d="M87.5,5h-75C8.4,5,5,8.4,5,12.5v55c0,4.1,3.4,7.5,7.5,7.5h21.3v5H22.5c-4.1,0-7.5,3.4-7.5,7.5s3.4,7.5,7.5,7.5h18.8h17.5  h18.8c4.1,0,7.5-3.4,7.5-7.5S81.6,80,77.5,80H66.3v-5h21.3c4.1,0,7.5-3.4,7.5-7.5v-55C95,8.4,91.6,5,87.5,5z M77.5,85  c1.4,0,2.5,1.1,2.5,2.5S78.9,90,77.5,90H58.8H41.3H22.5c-1.4,0-2.5-1.1-2.5-2.5s1.1-2.5,2.5-2.5H77.5z M38.8,80v-5h22.5v5H38.8z   M90,67.5c0,1.4-1.1,2.5-2.5,2.5h-75c-1.4,0-2.5-1.1-2.5-2.5v-55c0-1.4,1.1-2.5,2.5-2.5h75c1.4,0,2.5,1.1,2.5,2.5V67.5z"/><path d="M15,60h70V15H15V60z M20,20h60v35H20V20z"/><circle cx="50" cy="65" r="2.5"/><text x="0" y="115" fill="#000000" font-size="5px" font-weight="bold" font-family="'Helvetica Neue', Helvetica, Arial-Unicode, Arial, Sans-serif">Created by Arthur Shlain</text><text x="0" y="120" fill="#000000" font-size="5px" font-weight="bold" font-family="'Helvetica Neue', Helvetica, Arial-Unicode, Arial, Sans-serif">from the Noun Project</text></svg>