<?xml version="1.0" encoding="UTF-8" standalone="no"?>
<svg
   xmlns:sketch="http://www.bohemiancoding.com/sketch/ns"
   xmlns:dc="http://purl.org/dc/elements/1.1/"
   xmlns:cc="http://creativecommons.org/ns#"
   xmlns:rdf="http://www.w3.org/1999/02/22-rdf-syntax-ns#"
   xmlns:svg="http://www.w3.org/2000/svg"
   xmlns="http://www.w3.org/2000/svg"
   xmlns:sodipodi="http://sodipodi.sourceforge.net/DTD/sodipodi-0.dtd"
   xmlns:inkscape="http://www.inkscape.org/namespaces/inkscape"
   width="100"
   height="100"
   viewBox="0 0 100 100"
   version="1.1"
   id="svg2"
   inkscape:version="0.91+devel r"
   sodipodi:docname="meteor-icon-jakarta.svg"
   inkscape:export-filename="/home/mhaidarh/all/visual/brand-logo/meteor/meteor-icon-jakarta.png"
   inkscape:export-xdpi="96"
   inkscape:export-ydpi="96">
  <metadata
     id="metadata28">
    <rdf:RDF>
      <cc:Work
         rdf:about="">
        <dc:format>image/svg+xml</dc:format>
        <dc:type
           rdf:resource="http://purl.org/dc/dcmitype/StillImage" />
        <dc:title>icon</dc:title>
      </cc:Work>
    </rdf:RDF>
  </metadata>
  <sodipodi:namedview
     pagecolor="#ffffff"
     bordercolor="#666666"
     borderopacity="1"
     objecttolerance="10"
     gridtolerance="10"
     guidetolerance="10"
     inkscape:pageopacity="0"
     inkscape:pageshadow="2"
     inkscape:window-width="1366"
     inkscape:window-height="744"
     id="namedview26"
     showgrid="false"
     inkscape:zoom="3.2776246"
     inkscape:cx="-34.592519"
     inkscape:cy="29.931355"
     inkscape:window-x="0"
     inkscape:window-y="24"
     inkscape:window-maximized="1"
     inkscape:current-layer="svg2" />
  <!-- Generator: Sketch 3.1.1 (8761) - http://www.bohemiancoding.com/sketch -->
  <title
     id="title4">icon</title>
  <desc
     id="desc6">Created with Sketch.</desc>
  <defs
     id="defs8" />
  <rect
     style="opacity:1;fill:#26262c;fill-opacity:1;fill-rule:nonzero;stroke:none;stroke-width:32.24279022;stroke-linecap:butt;stroke-linejoin:miter;stroke-miterlimit:4;stroke-dasharray:none;stroke-dashoffset:0;stroke-opacity:1"
     id="rect4171"
     width="100"
     height="100"
     x="0"
     y="0" />
  <g
     style="fill:#f39c12;fill-rule:evenodd;stroke:none;stroke-width:1"
     transform="matrix(1.3317931,0,0,1.3317931,-583.84242,-147.75657)"
     sketch:type="MSArtboardGroup"
     id="Vectors">
    <g
       style="fill:#f39c12"
       transform="translate(446,119)"
       sketch:type="MSLayerGroup"
       id="icon">
      <path
         style="fill:#f39c12"
         inkscape:connector-curvature="0"
         sketch:type="MSShapeGroup"
         id="path"
         d="M -0.10309278,-0.10350877 51.340206,54.652632 c 0,0 1.752578,1.242105 3.092784,-0.207018 1.340206,-1.449123 0.309278,-2.898246 0.309278,-2.898246 L -0.10309278,-0.10350877 Z" />
      <path
         style="fill:#f39c12"
         inkscape:connector-curvature="0"
         sketch:type="MSShapeGroup"
         id="path14"
         d="M 16.185567,5.0719298 55.360825,47.510526 c 0,0 1.752577,1.242106 3.092783,-0.207017 1.340206,-1.449123 0.309279,-2.898246 0.309279,-2.898246 L 16.185567,5.0719298 Z" />
      <path
         style="fill:#f39c12"
         inkscape:connector-curvature="0"
         sketch:type="MSShapeGroup"
         id="path16"
         d="m 4.742268,16.147368 39.175258,42.438597 c 0,0 1.752577,1.242105 3.092783,-0.207018 1.340206,-1.449122 0.309279,-2.898245 0.309279,-2.898245 L 4.742268,16.147368 Z" />
      <path
         style="fill:#f39c12"
         inkscape:connector-curvature="0"
         sketch:type="MSShapeGroup"
         id="path18"
         d="M 29.955514,9.522807 57.324927,39.17212 c 0,0 1.224421,0.867785 2.160743,-0.14463 0.936322,-1.012416 0.216075,-2.024831 0.216075,-2.024831 L 29.955514,9.522807 Z" />
      <path
         style="fill:#f39c12"
         inkscape:connector-curvature="0"
         sketch:type="MSShapeGroup"
         id="path20"
         d="M 8.5122147,28.982456 35.881628,58.63177 c 0,0 1.224421,0.867784 2.160743,-0.144631 0.936322,-1.012416 0.216075,-2.024831 0.216075,-2.024831 L 8.5122147,28.982456 Z" />
      <path
         style="fill:#f39c12"
         inkscape:connector-curvature="0"
         sketch:type="MSShapeGroup"
         id="path22"
         d="m 44.020619,15.940351 12.404739,13.478881 c 0,0 0.605681,0.406622 1.06885,-0.06777 0.463168,-0.474392 0.106885,-0.948784 0.106885,-0.948784 L 44.020619,15.940351 Z" />
      <path
         style="fill:#f39c12"
         inkscape:connector-curvature="0"
         sketch:type="MSShapeGroup"
         id="path24"
         d="m 15.360825,42.645614 12.404739,13.478882 c 0,0 0.605682,0.406622 1.06885,-0.06777 0.463168,-0.474392 0.106885,-0.948784 0.106885,-0.948784 L 15.360825,42.645614 Z" />
    </g>
  </g>
</svg>
