<svg xmlns="http://www.w3.org/2000/svg" xmlns:xlink="http://www.w3.org/1999/xlink" version="1.1" x="0px" y="0px" viewBox="0 0 100 125" enable-background="new 0 0 100 100" xml:space="preserve"><path d="M32.9,10H19.4c-2.2,0-4.1,1.8-4.1,4v67.8V86c0,2.2,1.8,4,4.1,4h59.6h4.1v-8.2v-4V14v-4H32.9z M18.1,14  c0-0.7,0.6-1.3,1.4-1.3h2.3v65.1h-2.3c-0.5,0-0.9,0.1-1.4,0.2V14z M80.4,81.8v5.5h-1.4H19.4c-0.7,0-1.4-0.6-1.4-1.3v-4.2  c0-0.7,0.6-1.3,1.4-1.3h13.5h47.5V81.8z M80.4,14v63.8H32.9h-8.5V12.7h8.5h47.5V14z M64.2,37.3H39.9v-2.7h24.3V37.3z M64.2,44H39.9  v-2.7h24.3V44z"/><text x="0" y="115" fill="#000000" font-size="5px" font-weight="bold" font-family="'Helvetica Neue', Helvetica, Arial-Unicode, Arial, Sans-serif">Created by Anton Scherbik</text><text x="0" y="120" fill="#000000" font-size="5px" font-weight="bold" font-family="'Helvetica Neue', Helvetica, Arial-Unicode, Arial, Sans-serif">from the Noun Project</text></svg>