<svg xmlns="http://www.w3.org/2000/svg" xmlns:xlink="http://www.w3.org/1999/xlink" version="1.1" x="0px" y="0px" viewBox="0 0 100 125" enable-background="new 0 0 100 100" xml:space="preserve"><g><path d="M66.8,66.6v-29c0-3-2.5-5.5-5.5-5.5H15.5c-3,0-5.5,2.5-5.5,5.5v29c0,3,2.5,5.5,5.5,5.5h45.7C64.3,72.1,66.8,69.6,66.8,66.6   z M12.8,66.6v-29c0-1.5,1.2-2.8,2.8-2.8h45.7c1.5,0,2.8,1.2,2.8,2.8v29c0,1.5-1.2,2.8-2.8,2.8H15.5C14,69.4,12.8,68.1,12.8,66.6z"/><rect x="28" y="77.1" width="20.8" height="2.8"/><path d="M84.5,15.3H60.7c-3,0-5.5,2.5-5.5,5.5v6.5h2.8v-6.5c0-1.5,1.2-2.8,2.8-2.8h23.8c1.5,0,2.8,1.2,2.8,2.8v54.3   c0,1.5-1.2,2.8-2.8,2.8H60.7c-1.5,0-2.8-1.2-2.8-2.8v-0.2h-2.8v0.2c0,3,2.5,5.5,5.5,5.5h23.8c3,0,5.5-2.5,5.5-5.5V20.9   C90,17.8,87.5,15.3,84.5,15.3z"/><rect x="63" y="24.2" width="18.3" height="2.8"/><rect x="70.1" y="67.1" width="4" height="2.8"/></g><text x="0" y="115" fill="#000000" font-size="5px" font-weight="bold" font-family="'Helvetica Neue', Helvetica, Arial-Unicode, Arial, Sans-serif">Created by Anton Scherbik</text><text x="0" y="120" fill="#000000" font-size="5px" font-weight="bold" font-family="'Helvetica Neue', Helvetica, Arial-Unicode, Arial, Sans-serif">from the Noun Project</text></svg>