<svg xmlns="http://www.w3.org/2000/svg" xmlns:xlink="http://www.w3.org/1999/xlink" version="1.1" x="0px" y="0px" viewBox="0 0 100 125" enable-background="new 0 0 100 100" xml:space="preserve"><g><path d="M82.8,18.5H40.1c-3.6,0-6.5,2.9-6.5,6.5v27.8c0,3.6,2.9,6.5,6.5,6.5h27.2l9.5,9.5v-9.5h6c3.6,0,6.5-2.9,6.5-6.5V25   C89.3,21.4,86.4,18.5,82.8,18.5z M87.8,52.9c0,2.7-2.2,5-5,5h-7.5v7.4l-7.4-7.4H40.1c-2.7,0-5-2.2-5-5V25c0-2.7,2.2-5,5-5h42.7   c2.7,0,5,2.2,5,5V52.9z"/><path d="M61.6,65.6c-0.4,0-0.8,0.3-0.8,0.8c0,2.7-2.2,5-5,5h-24l-7.4,7.4v-7.4H17c-2.7,0-5-2.2-5-5V38.6c0-2.7,2.2-5,5-5h9.3   c0.4,0,0.8-0.3,0.8-0.8s-0.3-0.8-0.8-0.8H17c-3.6,0-6.5,2.9-6.5,6.5v27.8c0,3.6,2.9,6.5,6.5,6.5h6v9.5l9.5-9.5h23.3   c3.6,0,6.5-2.9,6.5-6.5C62.3,66,62,65.6,61.6,65.6z"/><path d="M78.9,30.4H44c-0.4,0-0.8,0.3-0.8,0.8c0,0.4,0.3,0.8,0.8,0.8h34.9c0.4,0,0.8-0.3,0.8-0.8C79.6,30.8,79.3,30.4,78.9,30.4z"/><path d="M78.9,37.6H44c-0.4,0-0.8,0.3-0.8,0.8s0.3,0.8,0.8,0.8h34.9c0.4,0,0.8-0.3,0.8-0.8S79.3,37.6,78.9,37.6z"/><path d="M78.9,44.8H44c-0.4,0-0.8,0.3-0.8,0.8c0,0.4,0.3,0.8,0.8,0.8h34.9c0.4,0,0.8-0.3,0.8-0.8C79.6,45.2,79.3,44.8,78.9,44.8z"/></g><text x="0" y="115" fill="#000000" font-size="5px" font-weight="bold" font-family="'Helvetica Neue', Helvetica, Arial-Unicode, Arial, Sans-serif">Created by Anton Scherbik</text><text x="0" y="120" fill="#000000" font-size="5px" font-weight="bold" font-family="'Helvetica Neue', Helvetica, Arial-Unicode, Arial, Sans-serif">from the Noun Project</text></svg>