<svg xmlns="http://www.w3.org/2000/svg" xmlns:xlink="http://www.w3.org/1999/xlink" version="1.1" x="0px" y="0px" viewBox="0 0 100 125" enable-background="new 0 0 100 100" xml:space="preserve"><g><path d="M81.4,15.4H18.7c-4.7,0-8.5,3.8-8.5,8.5v37.4c0,4.7,3.8,8.5,8.5,8.5h36.7l12.5,12.5V69.9h13.5c4.7,0,8.5-3.8,8.5-8.5V23.9   C89.9,19.2,86.1,15.4,81.4,15.4z M88.3,61.3c0,3.8-3.1,6.9-6.9,6.9H66.3v10.2L56.1,68.2H18.7c-3.8,0-6.9-3.1-6.9-6.9V23.9   c0-3.8,3.1-6.9,6.9-6.9h62.7c3.8,0,6.9,3.1,6.9,6.9V61.3z"/><path d="M31.8,36.6c-3.4,0-6.3,2.8-6.3,6.3s2.8,6.3,6.3,6.3s6.3-2.8,6.3-6.3S35.3,36.6,31.8,36.6z M31.8,47.5   c-2.6,0-4.6-2.1-4.6-4.6c0-2.6,2.1-4.6,4.6-4.6s4.6,2.1,4.6,4.6C36.5,45.4,34.4,47.5,31.8,47.5z"/><path d="M49.6,36.6c-3.4,0-6.3,2.8-6.3,6.3s2.8,6.3,6.3,6.3s6.3-2.8,6.3-6.3S53.1,36.6,49.6,36.6z M49.6,47.5   c-2.6,0-4.6-2.1-4.6-4.6c0-2.6,2.1-4.6,4.6-4.6s4.6,2.1,4.6,4.6C54.3,45.4,52.2,47.5,49.6,47.5z"/><path d="M67.4,36.6c-3.4,0-6.3,2.8-6.3,6.3s2.8,6.3,6.3,6.3c3.4,0,6.3-2.8,6.3-6.3S70.9,36.6,67.4,36.6z M67.4,47.5   c-2.6,0-4.6-2.1-4.6-4.6c0-2.6,2.1-4.6,4.6-4.6c2.6,0,4.6,2.1,4.6,4.6C72,45.4,70,47.5,67.4,47.5z"/></g><text x="0" y="115" fill="#000000" font-size="5px" font-weight="bold" font-family="'Helvetica Neue', Helvetica, Arial-Unicode, Arial, Sans-serif">Created by Anton Scherbik</text><text x="0" y="120" fill="#000000" font-size="5px" font-weight="bold" font-family="'Helvetica Neue', Helvetica, Arial-Unicode, Arial, Sans-serif">from the Noun Project</text></svg>