<svg xmlns="http://www.w3.org/2000/svg" xmlns:xlink="http://www.w3.org/1999/xlink" version="1.1" x="0px" y="0px" viewBox="0 0 100 125" enable-background="new 0 0 100 100" xml:space="preserve"><g display="none"><path display="inline" fill="none" stroke="#000000" stroke-width="6" stroke-linecap="round" stroke-linejoin="round" d="M50,89.6   C28.9,72,8,53.8,8,33.1c0-16.6,10-22.7,20.7-22.7C39.6,10.4,50,24,50,24s10.4-13.6,21.3-13.6C82,10.4,92,16.5,92,33.1   C92,53.8,71.1,72,50,89.6z"/></g><g display="none"><path display="inline" fill="none" stroke="#000000" stroke-width="6" stroke-linecap="round" stroke-linejoin="round" d="M50,89.6   C28.9,72,8,53.8,8,33.1c0-16.6,10.9-22.7,21.6-22.7c8.4,0,17.2,3.8,20.4,13.4c3.3-9.7,12.1-13.4,20.4-13.4   c10.6,0,21.6,6.1,21.6,22.7C92,53.8,71.1,72,50,89.6z"/></g><g><path d="M50,92.6c-0.7,0-1.4-0.2-1.9-0.7C28.9,75.8,5,55.9,5,33.1c0-8.4,2.7-15.3,7.8-19.8C17.1,9.5,23,7.4,29.6,7.4   c8.9,0,16.1,3.6,20.4,9.8c4.3-6.2,11.6-9.8,20.4-9.8c6.5,0,12.5,2.1,16.8,5.9c5.1,4.5,7.8,11.4,7.8,19.8   c0,22.8-23.9,42.8-43.1,58.8C51.4,92.3,50.7,92.6,50,92.6z M29.6,13.4c-17.2,0-18.6,15-18.6,19.7c0,18,17.5,34.5,39,52.6   c21.5-18.1,39-34.6,39-52.6c0-4.6-1.3-19.7-18.6-19.7c-4.1,0-14.1,1.1-17.6,11.4c-0.4,1.2-1.6,2-2.8,2l0,0c-1.3,0-2.4-0.8-2.8-2   C43.7,14.5,33.7,13.4,29.6,13.4z"/></g><g display="none"><path display="inline" fill="none" stroke="#000000" stroke-width="6" stroke-linecap="round" stroke-linejoin="round" d="M50,89.6   C28.9,72,8,53.8,8,33.1c0-16.6,10.9-22.7,21.6-22.7c8.4,0,17.2,3.8,20.4,13.4c3.3-9.7,12.1-13.4,20.4-13.4   c10.6,0,21.6,6.1,21.6,22.7C92,53.8,71.1,72,50,89.6z"/></g><g display="none"><path display="inline" fill="none" stroke="#000000" stroke-width="6" stroke-linecap="round" stroke-linejoin="round" d="M50,89.6   C28.9,72,8,53.8,8,33.1c0-16.6,10.9-22.7,21.6-22.7c8.4,0,17.2,3.8,20.4,13.4c3.3-9.7,12.1-13.4,20.4-13.4   c10.6,0,21.6,6.1,21.6,22.7C92,53.8,71.1,72,50,89.6z"/></g><g display="none"><circle display="inline" fill="none" stroke="#000000" stroke-width="6" stroke-linecap="round" cx="50" cy="52" r="28"/><line display="inline" fill="none" stroke="#000000" stroke-width="6" stroke-linecap="round" x1="50" y1="80" x2="50" y2="24"/><line display="inline" fill="none" stroke="#000000" stroke-width="6" stroke-linecap="round" x1="50.1" y1="50" x2="70.9" y2="70.8"/><line display="inline" fill="none" stroke="#000000" stroke-width="6" stroke-linecap="round" x1="50.1" y1="50" x2="29.3" y2="70.8"/><path display="inline" fill="none" stroke="#000000" stroke-width="6" stroke-linecap="round" stroke-linejoin="round" d="M50,89.6   C28.9,72,8,53.8,8,33.1c0-16.6,10-22.7,20.7-22.7C39.6,10.4,50,24,50,24s10.4-13.6,21.3-13.6C82,10.4,92,16.5,92,33.1   C92,53.8,71.1,72,50,89.6z"/></g><g display="none"><line display="inline" fill="none" stroke="#000000" stroke-width="6" stroke-linecap="round" x1="50" y1="89.6" x2="50" y2="24"/><line display="inline" fill="none" stroke="#000000" stroke-width="6" stroke-linecap="round" x1="50.1" y1="50" x2="70.9" y2="70.8"/><line display="inline" fill="none" stroke="#000000" stroke-width="6" stroke-linecap="round" x1="50.1" y1="50" x2="29.3" y2="70.8"/><path display="inline" fill="none" stroke="#000000" stroke-width="6" stroke-linecap="round" stroke-linejoin="round" d="M50,89.6   C28.9,72,8,53.8,8,33.1c0-16.6,10-22.7,20.7-22.7C39.6,10.4,50,24,50,24s10.4-13.6,21.3-13.6C82,10.4,92,16.5,92,33.1   C92,53.8,71.1,72,50,89.6z"/></g><g display="none"><circle display="inline" fill="none" stroke="#000000" stroke-width="6" stroke-linecap="round" cx="50" cy="50" r="42"/><line display="inline" fill="none" stroke="#000000" stroke-width="6" stroke-linecap="round" x1="50" y1="92" x2="50" y2="8"/><line display="inline" fill="none" stroke="#000000" stroke-width="6" stroke-linecap="round" x1="50.1" y1="47" x2="81.4" y2="78.2"/><line display="inline" fill="none" stroke="#000000" stroke-width="6" stroke-linecap="round" x1="50.1" y1="47" x2="18.9" y2="78.2"/><path display="inline" fill="none" stroke="#000000" stroke-width="6" stroke-linecap="round" stroke-linejoin="round" d="M50,92   C30.7,75.8,11.5,59.2,11.5,40.2c0-15.2,9.2-20.8,19-20.8c10,0,19.5,12.5,19.5,12.5s9.5-12.5,19.5-12.5c9.8,0,19,5.6,19,20.8   C88.5,59.2,69.3,75.8,50,92z"/></g><g display="none"><path display="inline" fill="none" stroke="#000000" stroke-width="6" stroke-linecap="round" stroke-linejoin="round" d="M50,89.6   C26.9,68.8,8,48.8,8,33.1c0-16.6,10-22.7,20.7-22.7C39.6,10.4,50,24,50,24s10.4-13.6,21.3-13.6C82,10.4,92,16.5,92,33.1   c0,11.4-7.5,23.6-15.7,32.4c-18.8-18.5-34.7,0-34.7,0"/><line display="inline" fill="none" stroke="#000000" stroke-width="6" stroke-linecap="round" stroke-linejoin="round" x1="50" y1="49" x2="50" y2="41"/><line display="inline" fill="none" stroke="#000000" stroke-width="6" stroke-linecap="round" stroke-linejoin="round" x1="60" y1="49" x2="60" y2="41"/></g><g display="none"><path display="inline" fill="none" stroke="#000000" stroke-width="6" stroke-linecap="round" stroke-linejoin="round" d="M50,89.6   C26.9,68.8,8,48.8,8,33.1c0-16.6,10-22.7,20.7-22.7C39.6,10.4,50,24,50,24s10.4-13.6,21.3-13.6C82,10.4,92,16.5,92,33.1   c0,11.4-7.5,23.6-15.7,32.4c-18.8,18.5-34.7,0-34.7,0"/><line display="inline" fill="none" stroke="#000000" stroke-width="6" stroke-linecap="round" stroke-linejoin="round" x1="50" y1="49" x2="50" y2="41"/><line display="inline" fill="none" stroke="#000000" stroke-width="6" stroke-linecap="round" stroke-linejoin="round" x1="60" y1="49" x2="60" y2="41"/></g><g display="none"><path display="inline" d="M50,92.6c-0.7,0-1.4-0.3-2-0.8C10.1,57.8,5,43,5,33.1C5,20.7,11.2,7.4,28.7,7.4c9,0,17.4,7.7,21.3,12   c4-4.3,12.3-12,21.3-12C88.8,7.4,95,20.7,95,33.1c0,15.1-11.5,29.1-16.5,34.4c0,0-0.1,0.1-0.1,0.1C72,74,65.2,77,58,76.7   c-11-0.5-18.3-8.9-18.6-9.3c-1.1-1.3-0.9-3.2,0.3-4.2c1.3-1.1,3.2-0.9,4.2,0.3c0.1,0.1,6,6.8,14.4,7.2c5.4,0.2,10.7-2.3,15.8-7.3   C83.5,53.4,89,42.1,89,33.1c0-5.9-1.7-19.7-17.7-19.7c-7.7,0-16.3,9-18.9,12.4C51.8,26.6,50.9,27,50,27l0,0c-0.9,0-1.8-0.4-2.4-1.2   C45,22.4,36.4,13.4,28.7,13.4c-16,0-17.7,13.8-17.7,19.7c0,15.4,21.9,37.1,41,54.3c1.2,1.1,1.3,3,0.2,4.2   C51.6,92.3,50.8,92.6,50,92.6z"/><path display="inline" d="M50,52c-1.7,0-3-1.3-3-3v-8c0-1.7,1.3-3,3-3c1.7,0,3,1.3,3,3v8C53,50.7,51.7,52,50,52z"/><path display="inline" d="M60,52c-1.7,0-3-1.3-3-3v-8c0-1.7,1.3-3,3-3s3,1.3,3,3v8C63,50.7,61.7,52,60,52z"/></g><g display="none"><path display="inline" fill="none" stroke="#000000" stroke-width="6" stroke-linecap="round" d="M81.8,92   c0-17.1-63.7-52.5-63.7-72.8C18.2,11,23.1,8,28.4,8c5.4,0,10.5,6.7,10.5,6.7S44,8,49.4,8c5.2,0,10.2,3,10.2,11.2   c0,20.3-41.4,35.8-41.4,53.7C18.2,87.6,31.1,92,38.9,92c17.4,0,33.8-12.7,33.8-30.9"/></g><g display="none"><path display="inline" d="M81.8,95c-1.7,0-3-1.4-3-3c0-3.2-3.5-7.9-8.6-13.1C63.7,88.5,52.1,95,38.9,95c-2.5,0-9.1-0.4-15-4.6   c-4-2.8-8.7-8.1-8.7-17.5c0-9.5,9-17.6,19-26c-10.9-10.1-19-19.5-19-27.7C15.2,12.6,18.6,5,28.4,5c4.3,0,8.1,2.9,10.5,5.2   C41.2,7.9,45.1,5,49.4,5c9.7,0,13.2,7.6,13.2,14.2c0,10.6-9.3,19.5-19.2,27.9c3.5,3.1,7.1,6.2,10.7,9.2c5.2,4.4,10.1,8.6,14.4,12.5   c0.7-2.4,1.1-5,1.1-7.7c0-1.7,1.4-3,3-3s3,1.4,3,3c0,4.3-0.9,8.4-2.5,12.2c7,7,11.7,13.3,11.7,18.7C84.8,93.6,83.5,95,81.8,95z    M38.7,51c-8.8,7.3-17.5,14.9-17.5,21.9c0,15.9,17,16.1,17.7,16.1c10.4,0,21.4-5.3,27-14.4c-4.8-4.5-10.4-9.2-15.7-13.7   C46.2,57.5,42.3,54.2,38.7,51z M28.4,11c-3.3,0-7.2,1.4-7.2,8.2C21.2,25.4,29,34,38.8,43c9.1-7.7,17.7-15.6,17.7-23.8   c0-6.7-3.9-8.2-7.2-8.2c-3.1,0-7,4.1-8.1,5.5l-2.4,3.1l-2.4-3.1C35.4,15.1,31.5,11,28.4,11z"/></g><g display="none"><path display="inline" fill="none" stroke="#000000" stroke-width="6" stroke-linecap="round" d="M76.8,77c0,0,7.2,7,7.2,15"/><path display="inline" fill="none" stroke="#000000" stroke-width="6" stroke-linecap="round" d="M44,50   c-9.4-10.5-18.6-19.1-25.7-19.1C10.8,30.9,8,35.5,8,40.3c0,5,6.2,9.7,6.2,9.7S8,54.7,8,59.7c0,4.8,2.8,9.4,10.3,9.4   C25.4,69.1,34.6,60.5,44,50z"/><path display="inline" fill="none" stroke="#000000" stroke-width="6" stroke-linecap="round" d="M56,50   c9.4-10.5,18.6-19.1,25.7-19.1c7.5,0,10.3,4.6,10.3,9.4c0,5-6.2,9.7-6.2,9.7s6.2,4.7,6.2,9.7c0,4.8-2.8,9.4-10.3,9.4   C74.6,69.1,65.4,60.5,56,50z"/><path display="inline" fill="none" stroke="#000000" stroke-width="6" stroke-linecap="round" d="M50,44   c-10.5-9.4-19.1-18.6-19.1-25.7c0-7.5,4.6-10.3,9.4-10.3c5,0,9.7,6.2,9.7,6.2S54.7,8,59.7,8c4.8,0,9.4,2.8,9.4,10.3   C69.1,25.4,60.5,34.6,50,44z"/><path display="inline" fill="none" stroke="#000000" stroke-width="6" stroke-linecap="round" d="M50,56   c-10.5,9.4-19.1,18.6-19.1,25.7c0,7.5,4.6,10.3,9.4,10.3c5,0,9.7-6.2,9.7-6.2s4.7,6.2,9.7,6.2c4.8,0,9.4-2.8,9.4-10.3   C69.1,74.6,60.5,65.4,50,56z"/></g><g display="none"><path display="inline" fill="none" stroke="#000000" stroke-width="6" stroke-linecap="round" d="M45.8,54.2   c-14.1-0.7-26.6-0.4-31.7,4.7c-5.3,5.3-4.1,10.5-0.6,13.9c3.5,3.5,11.2,2.5,11.2,2.5s-1,7.7,2.5,11.2c3.4,3.4,8.6,4.7,13.9-0.6   C46.1,80.9,46.5,68.4,45.8,54.2z"/><path display="inline" fill="none" stroke="#000000" stroke-width="6" stroke-linecap="round" d="M54.2,45.8   c-0.7-14.1-0.4-26.6,4.7-31.7c5.3-5.3,10.5-4.1,13.9-0.6c3.5,3.5,2.5,11.2,2.5,11.2s7.7-1,11.2,2.5c3.4,3.4,4.7,8.6-0.6,13.9   C80.9,46.1,68.4,46.5,54.2,45.8z"/><path display="inline" fill="none" stroke="#000000" stroke-width="6" stroke-linecap="round" d="M45.8,45.8   c-14.1,0.7-26.6,0.4-31.7-4.7c-5.3-5.3-4.1-10.5-0.6-13.9c3.5-3.5,11.2-2.5,11.2-2.5s-1-7.7,2.5-11.2c3.4-3.4,8.6-4.7,13.9,0.6   C46.1,19.1,46.5,31.6,45.8,45.8z"/><path display="inline" fill="none" stroke="#000000" stroke-width="6" stroke-linecap="round" d="M54.2,54.2   c-0.7,14.1-0.4,26.6,4.7,31.7c5.3,5.3,10.5,4.1,13.9,0.6c3.5-3.5,2.5-11.2,2.5-11.2s7.7,1,11.2-2.5c3.4-3.4,4.7-8.6-0.6-13.9   C80.9,53.9,68.4,53.5,54.2,54.2z"/></g><g display="none"><path display="inline" d="M33.7,92.5C33.7,92.5,33.7,92.5,33.7,92.5c-3.1,0-6.1-1.3-8.6-3.8c-2.8-2.8-3.4-7.1-3.5-10.2   c-3.3-0.1-7.5-0.8-10.2-3.5C4.9,68.5,7.6,61.1,12,56.8c4-4,11.4-5.8,24-5.8c2.9,0,6.2,0.1,10,0.3l2.7,0.1l0.1,2.7   c0.7,14,0.6,27.8-5.5,33.9C40.2,91,37,92.5,33.7,92.5z M28.2,71.8l-0.5,3.9c-0.2,1.6-0.4,6.7,1.6,8.7c0.9,0.9,2.5,2.1,4.4,2.1   c1.7,0,3.5-0.9,5.3-2.7c4.2-4.2,4.3-16.6,3.9-26.7c-2.6-0.1-4.9-0.2-7-0.2c-10.4,0-17,1.4-19.7,4.1c-3.4,3.4-3.6,6.7-0.6,9.7   c1.1,1.1,3.5,1.7,6.5,1.7c1.3,0,2.2-0.1,2.2-0.1L28.2,71.8z M64.1,49.1c-2.9,0-6.2-0.1-10-0.3l-2.7-0.1l-0.1-2.7   c-0.7-14-0.6-27.8,5.5-33.9c3-3,6.2-4.5,9.6-4.5c3.1,0,6.1,1.3,8.6,3.8c2.8,2.8,3.4,7.1,3.5,10.2c3.3,0.1,7.5,0.8,10.2,3.5   c2.4,2.4,3.7,5.3,3.8,8.3c0.1,2.4-0.6,6.1-4.5,9.9C84,47.3,76.6,49.1,64.1,49.1z M57.1,42.9c2.6,0.1,4.9,0.2,7,0.2   c10.4,0,17-1.4,19.7-4.1c1.9-1.9,2.8-3.7,2.7-5.5c-0.1-1.8-1.2-3.3-2.1-4.2c-1.1-1.1-3.5-1.7-6.5-1.7c-1.3,0-2.2,0.1-2.2,0.1   l-3.9,0.5l0.5-3.9c0.2-1.6,0.4-6.7-1.6-8.7c-1-0.9-2.5-2.1-4.4-2.1c-1.7,0-3.5,0.9-5.3,2.7C56.9,20.4,56.7,32.8,57.1,42.9z    M35.9,49.1c-12.5,0-19.9-1.8-24-5.8c-3.8-3.8-4.6-7.5-4.5-9.9c0.1-3,1.4-5.9,3.8-8.3c2.7-2.7,6.9-3.4,10.2-3.5   c0.1-3.1,0.7-7.4,3.5-10.2c2.5-2.5,5.5-3.8,8.6-3.8c3.4,0,6.6,1.5,9.6,4.5c6.1,6.1,6.3,19.9,5.5,33.9l-0.1,2.7l-2.7,0.1   C42.1,49,38.9,49.1,35.9,49.1z M22.1,27.5c-3.1,0-5.4,0.6-6.5,1.7c-0.9,0.9-2,2.4-2.1,4.2c-0.1,1.8,0.9,3.6,2.7,5.5   c2.7,2.7,9.3,4.1,19.7,4.1c2.1,0,4.4-0.1,7-0.2c0.4-10.1,0.2-22.5-3.9-26.7c-1.8-1.8-3.6-2.7-5.3-2.7c-1.9,0-3.4,1.1-4.4,2.1   c-2,2-1.8,7.1-1.6,8.7l0.5,3.9l-3.9-0.5C24.3,27.6,23.4,27.5,22.1,27.5z M66.3,92.5c-3.4,0-6.6-1.5-9.6-4.5   c-6.1-6.1-6.3-19.9-5.5-33.9l0.1-2.7l2.7-0.1c3.8-0.2,7.1-0.3,10-0.3c12.5,0,19.9,1.8,24,5.8c4.3,4.3,7.1,11.7,0.6,18.2   c-2.7,2.7-6.9,3.4-10.2,3.5c-0.1,3.1-0.7,7.4-3.5,10.2C72.5,91.2,69.5,92.5,66.3,92.5z M57.1,57.1c-0.4,10.1-0.2,22.5,3.9,26.7   c1.8,1.8,3.6,2.7,5.3,2.7c1.9,0,3.4-1.1,4.4-2.1c2-2,1.8-7.1,1.6-8.7l-0.5-3.9l3.9,0.5c0,0,0.9,0.1,2.2,0.1c0,0,0,0,0,0   c3,0,5.4-0.6,6.5-1.7c3-3,2.8-6.3-0.6-9.7c-2.7-2.7-9.3-4.1-19.7-4.1C62,56.9,59.7,57,57.1,57.1z"/></g><g display="none"><path display="inline" fill="none" stroke="#000000" stroke-width="6" stroke-linecap="round" d="M44,50   c-9.4-10.5-18.6-19.1-25.7-19.1C10.8,30.9,8,35.5,8,40.3c0,5,6.2,9.7,6.2,9.7S8,54.7,8,59.7c0,4.8,2.8,9.4,10.3,9.4   C25.4,69.1,34.6,60.5,44,50z"/><path display="inline" fill="none" stroke="#000000" stroke-width="6" stroke-linecap="round" d="M56,50   c9.4-10.5,18.6-19.1,25.7-19.1c7.5,0,10.3,4.6,10.3,9.4c0,5-6.2,9.7-6.2,9.7s6.2,4.7,6.2,9.7c0,4.8-2.8,9.4-10.3,9.4   C74.6,69.1,65.4,60.5,56,50z"/><path display="inline" fill="none" stroke="#000000" stroke-width="6" stroke-linecap="round" d="M50,44   c-10.5-9.4-19.1-18.6-19.1-25.7c0-7.5,4.6-10.3,9.4-10.3c5,0,9.7,6.2,9.7,6.2S54.7,8,59.7,8c4.8,0,9.4,2.8,9.4,10.3   C69.1,25.4,60.5,34.6,50,44z"/><path display="inline" fill="none" stroke="#000000" stroke-width="6" stroke-linecap="round" d="M50,56   c-10.5,9.4-19.1,18.6-19.1,25.7c0,7.5,4.6,10.3,9.4,10.3c5,0,9.7-6.2,9.7-6.2s4.7,6.2,9.7,6.2c4.8,0,9.4-2.8,9.4-10.3   C69.1,74.6,60.5,65.4,50,56z"/></g><g display="none"><path display="inline" d="M18.3,72.1C12.2,72.1,5,68.8,5,59.7c0-3.9,2.6-7.5,4.7-9.7C7.6,47.8,5,44.2,5,40.3   c0-9.2,7.2-12.4,13.3-12.4c8.7,0,18.5,9.7,27.9,20.1l1.8,2l-1.8,2C36.9,62.4,27,72.1,18.3,72.1z M18.3,33.9c-4.9,0-7.3,2.2-7.3,6.4   c0,2.8,3.7,6.3,5,7.3l3.1,2.4L16,52.4c-1.3,1-5,4.5-5,7.3c0,4.2,2.5,6.4,7.3,6.4c5.9,0,14.8-8.7,21.6-16.1   C33.1,42.6,24.2,33.9,18.3,33.9z"/><path display="inline" d="M81.7,72.1c-8.7,0-18.5-9.7-27.9-20.1L52,50l1.8-2C63.1,37.6,73,27.9,81.7,27.9c6.1,0,13.3,3.2,13.3,12.4   c0,3.9-2.6,7.5-4.7,9.7c2.1,2.2,4.7,5.8,4.7,9.7C95,68.8,87.8,72.1,81.7,72.1z M60.1,50c6.8,7.4,15.7,16.1,21.6,16.1   c4.9,0,7.3-2.2,7.3-6.4c0-2.8-3.7-6.3-5-7.3L80.9,50l3.1-2.4c1.3-1,5-4.5,5-7.3c0-4.2-2.5-6.4-7.3-6.4C75.8,33.9,66.9,42.6,60.1,50   z"/><path display="inline" d="M50,48l-2-1.8C37.6,36.9,27.9,27,27.9,18.3C27.9,12.2,31.2,5,40.3,5c3.9,0,7.5,2.6,9.7,4.7   C52.2,7.6,55.8,5,59.7,5c9.2,0,12.4,7.2,12.4,13.3c0,8.7-9.7,18.5-20.1,27.9L50,48z M40.3,11c-4.2,0-6.4,2.5-6.4,7.3   c0,5.9,8.7,14.8,16.1,21.6c7.4-6.8,16.1-15.7,16.1-21.6c0-4.9-2.2-7.3-6.4-7.3c-2.8,0-6.3,3.7-7.3,5L50,19.1L47.6,16   C46.6,14.7,43.1,11,40.3,11z"/><path display="inline" d="M59.7,95c-3.9,0-7.5-2.6-9.7-4.7c-2.2,2.1-5.8,4.7-9.7,4.7c-9.2,0-12.4-7.2-12.4-13.3   c0-8.7,9.7-18.5,20.1-27.9l2-1.8l2,1.8C62.4,63.1,72.1,73,72.1,81.7C72.1,87.8,68.8,95,59.7,95z M50,80.9l2.4,3.1   c1,1.3,4.5,5,7.3,5c4.2,0,6.4-2.5,6.4-7.3c0-5.9-8.7-14.8-16.1-21.6c-7.4,6.8-16.1,15.7-16.1,21.6c0,4.9,2.2,7.3,6.4,7.3   c2.6,0,6.1-3.4,7.3-5L50,80.9z"/></g><g display="none"><path display="inline" fill="none" stroke="#000000" stroke-width="6" stroke-linecap="round" d="M56.7,68.5   c8.6,8.7,16.7,15.1,23.2,15.1c8.8,0,12-5.3,12-11c0-5.8-7.2-11.3-7.2-11.3S92,55.8,92,50c0-5.6-3.2-11-12-11   c-8.3,0-18.9,10-30,22.3C39,49.1,28.3,39.1,20,39.1c-8.8,0-12,5.3-12,11c0,5.8,7.2,11.3,7.2,11.3S8,66.8,8,72.6c0,5.6,3.2,11,12,11   c6.6,0,14.7-6.3,23.2-15.1"/><path display="inline" fill="none" stroke="#000000" stroke-width="6" stroke-linecap="round" d="M28.8,16.4   c14.3,5,16.4,18.7,16.4,18.7"/><path display="inline" fill="none" stroke="#000000" stroke-width="6" stroke-linecap="round" d="M71.2,16.4   c-14.3,5-16.4,18.7-16.4,18.7"/></g><g display="none"><path display="inline" d="M80,86.6c-6.7,0-14.6-4.9-25.4-16c-1.2-1.2-1.1-3.1,0-4.2s3.1-1.1,4.2,0C68.2,76,75.1,80.6,80,80.6   c7.5,0,9-4.3,9-8c0-3.5-4.5-7.7-6-8.9l-3.1-2.4l3.1-2.4c1.6-1.2,6-5.4,6-8.9c0-3.6-1.6-8-9-8c-7.6,0-18.8,11.4-27.7,21.3L50,65.8   l-2.2-2.5C38.9,53.4,27.7,42.1,20,42.1c-7.5,0-9,4.3-9,8c0,3.5,4.5,7.7,6,8.9l3.1,2.4L17,63.7c-1.6,1.2-6,5.4-6,8.9   c0,3.6,1.6,8,9,8c4.9,0,11.8-4.6,21.1-14.2c1.2-1.2,3.1-1.2,4.2,0c1.2,1.2,1.2,3.1,0,4.2c-10.8,11-18.7,16-25.4,16   c-6.9,0-15-3.7-15-14c0-4.6,3.2-8.8,5.7-11.3C8.2,58.8,5,54.7,5,50c0-10.3,8.1-14,15-14c9.2,0,19.8,9.7,30,20.8   c10.2-11.1,20.7-20.8,30-20.8c6.9,0,15,3.7,15,14c0,4.6-3.2,8.8-5.7,11.3C91.8,63.8,95,68,95,72.6C95,82.9,86.9,86.6,80,86.6z"/><path display="inline" d="M45.2,38.1c-1.5,0-2.7-1.1-3-2.6c-0.1-0.5-2-12-14.4-16.3c-1.6-0.5-2.4-2.3-1.8-3.8   c0.5-1.6,2.3-2.4,3.8-1.8C45.7,19.2,48.1,34,48.2,34.7c0.2,1.6-0.9,3.2-2.5,3.4C45.5,38.1,45.3,38.1,45.2,38.1z"/><path display="inline" d="M54.8,38.1c-0.2,0-0.3,0-0.5,0c-1.6-0.3-2.8-1.8-2.5-3.4c0.1-0.6,2.5-15.5,18.4-21.1   c1.6-0.5,3.3,0.3,3.8,1.8c0.5,1.6-0.3,3.3-1.8,3.8c-12.4,4.3-14.3,15.8-14.4,16.3C57.5,37,56.3,38.1,54.8,38.1z"/></g><g display="none"><path display="inline" fill="none" stroke="#000000" stroke-width="6" stroke-linecap="round" d="M56.7,42.8   c8.6-8.7,16.7-15.1,23.2-15.1c8.8,0,12,5.3,12,11c0,5.8-7.2,11.3-7.2,11.3S92,55.5,92,61.3c0,5.6-3.2,11-12,11   c-8.3,0-18.9-10-30-22.3S28.3,27.7,20,27.7c-8.8,0-12,5.3-12,11C8,44.5,15.2,50,15.2,50S8,55.5,8,61.3c0,5.6,3.2,11,12,11   c6.6,0,14.7-6.3,23.2-15.1"/></g><g display="none"><path display="inline" d="M80,75.3c-9.9,0-21.3-11.2-32.2-23.3C38.9,42.1,27.7,30.7,20,30.7c-7.5,0-9,4.3-9,8c0,3.5,4.5,7.7,6,8.9   l3.1,2.4L17,52.4c-1.6,1.2-6,5.4-6,8.9c0,3.6,1.6,8,9,8c4.9,0,11.8-4.6,21.1-14.2c1.2-1.2,3.1-1.2,4.2,0c1.2,1.2,1.2,3.1,0,4.2   c-10.8,11-18.7,16-25.4,16c-6.9,0-15-3.7-15-14c0-4.6,3.2-8.8,5.7-11.3C8.2,47.5,5,43.3,5,38.7c0-10.3,8.1-14,15-14   c9.9,0,21.3,11.2,32.2,23.3c8.9,9.9,20.1,21.3,27.7,21.3c7.5,0,9-4.3,9-8c0-3.5-4.5-7.7-6-8.9L79.9,50l3.1-2.4c1.6-1.2,6-5.4,6-8.9   c0-3.6-1.6-8-9-8c-4.9,0-11.8,4.6-21.1,14.2c-1.2,1.2-3.1,1.2-4.2,0c-1.2-1.2-1.2-3.1,0-4.2c10.8-11,18.7-16,25.4-16   c6.9,0,15,3.7,15,14c0,4.6-3.2,8.8-5.7,11.3c2.5,2.5,5.7,6.7,5.7,11.3C95,71.6,86.9,75.3,80,75.3z"/></g><g display="none"><path display="inline" fill="none" stroke="#000000" stroke-width="6" stroke-linecap="round" d="M27.1,44   c10.5-9.4,19.1-18.6,19.1-25.7c0-7.5-4.6-10.3-9.4-10.3c-5,0-9.7,6.2-9.7,6.2S22.4,8,17.4,8C12.6,8,8,10.8,8,18.3   C8,25.4,16.6,34.6,27.1,44z"/><path display="inline" fill="none" stroke="#000000" stroke-width="6" stroke-linecap="round" d="M72.9,91   c-10.5-9.4-19.1-18.6-19.1-25.7c0-7.5,4.6-10.3,9.4-10.3c5,0,9.7,6.2,9.7,6.2s4.7-6.2,9.7-6.2c4.8,0,9.4,2.8,9.4,10.3   C92,72.4,83.4,81.6,72.9,91z"/><line display="inline" fill="none" stroke="#000000" stroke-width="6" stroke-linecap="round" x1="21.8" y1="91.9" x2="70.2" y2="8.1"/></g><g display="none"><path display="inline" d="M27.1,48l-2-1.8C14.7,36.8,5,27,5,18.3C5,12.2,8.2,5,17.4,5c3.9,0,7.5,2.6,9.7,4.7   C29.3,7.6,32.8,5,36.8,5c9.2,0,12.4,7.2,12.4,13.3c0,8.7-9.7,18.5-20.1,27.9L27.1,48z M17.4,11c-4.2,0-6.4,2.5-6.4,7.3   c0,5.9,8.7,14.8,16.1,21.6c7.4-6.8,16.1-15.7,16.1-21.6c0-4.9-2.2-7.3-6.4-7.3c-2.8,0-6.3,3.7-7.3,5l-2.4,3.1L24.7,16   C23.7,14.7,20.2,11,17.4,11z"/><path display="inline" d="M72.9,95l-2-1.8C60.5,83.8,50.8,74,50.8,65.3c0-6.1,3.2-13.3,12.4-13.3c3.9,0,7.5,2.6,9.7,4.7   c2.2-2.1,5.8-4.7,9.7-4.7C91.8,52,95,59.2,95,65.3c0,8.7-9.7,18.5-20.1,27.9L72.9,95z M63.2,58c-4.2,0-6.4,2.5-6.4,7.3   c0,5.9,8.7,14.8,16.1,21.6C80.3,80.1,89,71.2,89,65.3c0-4.9-2.2-7.3-6.4-7.3c-2.8,0-6.3,3.7-7.3,5l-2.4,3.1L70.5,63   C69.5,61.7,66,58,63.2,58z"/><path display="inline" d="M21.8,94.9c-0.5,0-1-0.1-1.5-0.4c-1.4-0.8-1.9-2.7-1.1-4.1L67.6,6.6c0.8-1.4,2.7-1.9,4.1-1.1   c1.4,0.8,1.9,2.7,1.1,4.1L24.4,93.4C23.8,94.4,22.8,94.9,21.8,94.9z"/></g><text x="0" y="115" fill="#000000" font-size="5px" font-weight="bold" font-family="'Helvetica Neue', Helvetica, Arial-Unicode, Arial, Sans-serif">Created by Till Teenck</text><text x="0" y="120" fill="#000000" font-size="5px" font-weight="bold" font-family="'Helvetica Neue', Helvetica, Arial-Unicode, Arial, Sans-serif">from the Noun Project</text></svg>