<?xml version="1.0" encoding="UTF-8" standalone="no"?>
<svg
   xmlns:dc="http://purl.org/dc/elements/1.1/"
   xmlns:cc="http://creativecommons.org/ns#"
   xmlns:rdf="http://www.w3.org/1999/02/22-rdf-syntax-ns#"
   xmlns:svg="http://www.w3.org/2000/svg"
   xmlns="http://www.w3.org/2000/svg"
   xmlns:sodipodi="http://sodipodi.sourceforge.net/DTD/sodipodi-0.dtd"
   xmlns:inkscape="http://www.inkscape.org/namespaces/inkscape"
   width="2200"
   height="500"
   viewBox="0 0 2200 500"
   version="1.1"
   id="svg2"
   inkscape:version="0.48.4 r9939"
   sodipodi:docname="jlp-programs_jlpvisits_mark.svg"
   inkscape:export-filename="/home/agnium/all/repo/jlpcommunity/jlp-brand/assets/png/jlp-programs_jlpvisits_mark.png"
   inkscape:export-xdpi="90"
   inkscape:export-ydpi="90">
  <metadata
     id="metadata30">
    <rdf:RDF>
      <cc:Work
         rdf:about="">
        <dc:format>image/svg+xml</dc:format>
        <dc:type
           rdf:resource="http://purl.org/dc/dcmitype/StillImage" />
        <dc:title>Agnium Brand Asset</dc:title>
      </cc:Work>
    </rdf:RDF>
  </metadata>
  <sodipodi:namedview
     pagecolor="#ffffff"
     bordercolor="#666666"
     borderopacity="1"
     objecttolerance="10"
     gridtolerance="10"
     guidetolerance="10"
     inkscape:pageopacity="0"
     inkscape:pageshadow="2"
     inkscape:window-width="1366"
     inkscape:window-height="744"
     id="namedview28"
     showgrid="false"
     inkscape:zoom="0.21762913"
     inkscape:cx="1108.1562"
     inkscape:cy="915.12878"
     inkscape:window-x="0"
     inkscape:window-y="24"
     inkscape:window-maximized="1"
     inkscape:current-layer="layer1"
     inkscape:object-paths="true"
     inkscape:object-nodes="true"
     inkscape:snap-intersection-paths="true"
     inkscape:snap-smooth-nodes="true"
     inkscape:snap-bbox="true"
     inkscape:snap-global="false" />
  <!-- Generator: Sketch 3.0.3 (7892) - http://www.bohemiancoding.com/sketch -->
  <title
     id="title4">Agnium Brand Asset</title>
  <desc
     id="desc6">Created with Sketch.</desc>
  <defs
     id="defs8">
    <filter
       x="-0.5"
       y="-0.5"
       width="2"
       height="2"
       filterUnits="objectBoundingBox"
       id="filter-1"
       color-interpolation-filters="sRGB">
      <feOffset
         dx="2"
         dy="2"
         in="SourceAlpha"
         result="shadowOffsetOuter1"
         id="feOffset11" />
      <feGaussianBlur
         stdDeviation="2"
         in="shadowOffsetOuter1"
         result="shadowBlurOuter1"
         id="feGaussianBlur13" />
      <feColorMatrix
         values="0 0 0 0 0   0 0 0 0 0   0 0 0 0 0  0 0 0 0.35 0"
         in="shadowBlurOuter1"
         type="matrix"
         result="shadowMatrixOuter1"
         id="feColorMatrix15" />
      <feMerge
         id="feMerge17">
        <feMergeNode
           in="shadowMatrixOuter1"
           id="feMergeNode19" />
        <feMergeNode
           in="SourceGraphic"
           id="feMergeNode21" />
      </feMerge>
    </filter>
  </defs>
  <g
     inkscape:groupmode="layer"
     id="layer2"
     inkscape:label="bg"
     transform="translate(0,-300)"
     style="display:inline" />
  <g
     inkscape:groupmode="layer"
     id="layer1"
     inkscape:label="base"
     style="display:inline"
     transform="translate(0,-300)">
    <g
       id="g3075"
       transform="translate(-182.80323,653.40025)">
      <g
         transform="translate(-766.04022,-1366.8465)"
         style="fill:#8e24aa"
         id="g4597">
        <path
           inkscape:connector-curvature="0"
           id="path4173"
           style="font-size:420.1680603px;font-style:normal;font-weight:bold;line-height:125%;letter-spacing:0px;word-spacing:0px;fill:#8e24aa;fill-opacity:1;stroke:none;font-family:'Exo 2.0';-inkscape-font-specification:'Exo 2.0 Bold'"
           d="m 2275.847,1180.3945 -65.9663,0 -52.1009,209.2437 c -2.521,10.5042 -5.4622,21.8488 -7.1428,32.353 l -10.5042,0 c -2.1009,-10.5042 -4.6219,-21.8488 -7.1429,-32.353 l -52.521,-209.2437 -65.9664,0 78.9916,272.269 c 2.521,10.5041 11.3445,17.647 22.6891,17.647 l 58.4033,0 c 11.3446,0 20.1681,-7.1429 22.6891,-17.647 l 78.5714,-272.269" />
        <path
           inkscape:connector-curvature="0"
           id="path4175"
           style="font-size:420.1680603px;font-style:normal;font-weight:bold;line-height:125%;letter-spacing:0px;word-spacing:0px;fill:#8e24aa;fill-opacity:1;stroke:none;font-family:'Exo 2.0';-inkscape-font-specification:'Exo 2.0 Bold'"
           d="m 2323.2078,1171.571 c -12.1848,0 -18.0672,6.3026 -18.0672,18.0672 l 0,22.6891 c 0,12.1849 5.8824,18.0672 18.0672,18.0672 l 27.7311,0 c 12.1849,0 18.0673,-5.8823 18.0673,-18.0672 l 0,-22.6891 c 0,-11.7646 -5.8824,-18.0672 -18.0673,-18.0672 l -27.7311,0 m 44.958,298.7395 0,-207.1428 -61.7647,0 0,207.1428 61.7647,0" />
        <path
           inkscape:connector-curvature="0"
           id="path4177"
           style="font-size:420.1680603px;font-style:normal;font-weight:bold;line-height:125%;letter-spacing:0px;word-spacing:0px;fill:#8e24aa;fill-opacity:1;stroke:none;font-family:'Exo 2.0';-inkscape-font-specification:'Exo 2.0 Bold'"
           d="m 2512.4476,1393.4198 c 20.5883,5.8823 29.4118,6.7227 29.4118,19.3277 0,13.4453 -9.6639,15.5462 -52.1008,15.5462 -27.7311,0 -56.7227,0 -71.8488,-0.8403 l -3.7815,40.3361 c 39.9159,6.7227 77.311,7.1429 92.8572,7.1429 66.8066,0 94.9579,-12.185 94.9579,-63.4454 0,-36.1344 -15.9664,-50.4202 -51.2605,-60.5042 l -52.9411,-14.2857 c -19.7479,-5.4622 -27.311,-5.8824 -27.311,-18.4874 0,-13.8656 7.5631,-13.8656 39.916,-13.8656 26.0504,0 53.3614,0.4202 79.8319,0.8404 l 4.2017,-39.916 c -25.6302,-4.6218 -65.9664,-7.563 -95.7983,-7.9832 -64.7058,0 -88.2353,15.9664 -88.2353,59.2437 0,32.7731 10.9244,51.6807 50.4202,63.0252 l 51.6806,13.8656" />
        <path
           inkscape:connector-curvature="0"
           id="path4179"
           style="font-size:420.1680603px;font-style:normal;font-weight:bold;line-height:125%;letter-spacing:0px;word-spacing:0px;fill:#8e24aa;fill-opacity:1;stroke:none;font-family:'Exo 2.0';-inkscape-font-specification:'Exo 2.0 Bold'"
           d="m 2660.4912,1171.571 c -12.1848,0 -18.0672,6.3026 -18.0672,18.0672 l 0,22.6891 c 0,12.1849 5.8824,18.0672 18.0672,18.0672 l 27.7311,0 c 12.1849,0 18.0672,-5.8823 18.0672,-18.0672 l 0,-22.6891 c 0,-11.7646 -5.8823,-18.0672 -18.0672,-18.0672 l -27.7311,0 m 44.958,298.7395 0,-207.1428 -61.7647,0 0,207.1428 61.7647,0" />
        <path
           inkscape:connector-curvature="0"
           id="path4181"
           style="font-size:420.1680603px;font-style:normal;font-weight:bold;line-height:125%;letter-spacing:0px;word-spacing:0px;fill:#8e24aa;fill-opacity:1;stroke:none;font-family:'Exo 2.0';-inkscape-font-specification:'Exo 2.0 Bold'"
           d="m 2838.3864,1304.7643 57.5631,0 0,-41.5966 -57.5631,0 0,-57.9832 -61.7647,0 0,57.9832 -36.5546,2.1008 0,39.4958 36.5546,0 0,110.9244 c 0,37.815 21.8488,59.6638 59.2437,59.6638 14.7059,0 42.8572,-2.9412 58.4034,-8.4033 l -6.7227,-43.2773 -26.4706,0 c -16.8067,0 -22.6891,-5.4622 -22.6891,-21.0084 l 0,-97.8992" />
        <path
           inkscape:connector-curvature="0"
           id="path4183"
           style="font-size:420.1680603px;font-style:normal;font-weight:bold;line-height:125%;letter-spacing:0px;word-spacing:0px;fill:#8e24aa;fill-opacity:1;stroke:none;font-family:'Exo 2.0';-inkscape-font-specification:'Exo 2.0 Bold'"
           d="m 3022.0654,1393.4198 c 20.5883,5.8823 29.4118,6.7227 29.4118,19.3277 0,13.4453 -9.6639,15.5462 -52.1008,15.5462 -27.7311,0 -56.7227,0 -71.8488,-0.8403 l -3.7815,40.3361 c 39.9159,6.7227 77.311,7.1429 92.8572,7.1429 66.8066,0 94.9579,-12.185 94.9579,-63.4454 0,-36.1344 -15.9664,-50.4202 -51.2605,-60.5042 l -52.9411,-14.2857 c -19.7479,-5.4622 -27.311,-5.8824 -27.311,-18.4874 0,-13.8656 7.5631,-13.8656 39.916,-13.8656 26.0504,0 53.3614,0.4202 79.8319,0.8404 l 4.2017,-39.916 c -25.6302,-4.6218 -65.9664,-7.563 -95.7983,-7.9832 -64.7058,0 -88.2353,15.9664 -88.2353,59.2437 0,32.7731 10.9244,51.6807 50.4202,63.0252 l 51.6806,13.8656" />
        <g
           transform="translate(1321.4346,878.29375)"
           style="fill:#8e24aa;display:inline"
           id="g4343-83-9">
          <path
             inkscape:connector-curvature="0"
             style="fill:#8e24aa;fill-opacity:1;fill-rule:nonzero;stroke:none;display:inline"
             d="m 118.305,168.2042 c -1.29485,-0.02 -2.2384,1.42615 -2.91095,4.43195 -3.89085,15.2321 -15.0795,31.1473 -25.4962,44.032 C 79.4812,229.5529 65.6788,242.5109 78.446,266.47455 c 8.9594,14.329 22.1372,19.28425 33.19595,20.62605 -2.90245,-1.96095 -5.47275,-4.26995 -7.16115,-6.9399 -6.72,-10.62655 -3.8416,-21.3073 -3.8416,-21.3073 0,0 8.29235,18.037 20.8543,23.4792 4.2925,1.85965 7.72985,3.03255 10.6498,3.70665 0,0 41.47645,-12.92025 28.7361,-50.33435 -1.31005,-3.0206 -2.90675,-5.97175 -4.8282,-8.4229 -3.27275,-4.17485 -6.0628,-6.5237 -8.14915,-7.8452 -0.494,2.89755 -1.1892,5.8122 -2.1667,8.4134 -3.82045,10.16655 -10.97665,10.8157 -10.97665,10.8157 0,0 6.1084,-0.7249 4.8476,-19.83565 -0.8643,-13.101 -6.67625,-30.3138 -11.523,-38.7089 -4.48555,-7.76945 -7.62025,-11.8822 -9.7783,-11.91715 z"
             id="rect4149-4-6" />
          <path
             d="m 163.4789,302.10075 -90.33615,0 0,217.22715 c 0,10.5042 -7.9832,14.7059 -24.7899,14.7059 l -19.7479,0 -9.6639,57.14285 c 14.28575,7.563 49.1597,10.92435 67.6471,10.92435 47.479,0 76.89075,-21.42855 76.89075,-59.2437 z"
             style="font-size:84.03361511px;font-style:normal;font-variant:normal;font-weight:900;font-stretch:normal;line-height:125%;letter-spacing:0px;word-spacing:0px;fill:#8e24aa;fill-opacity:1;stroke:none;display:inline;font-family:'Exo 2.0';-inkscape-font-specification:'Exo 2.0 Heavy'"
             id="path4194-6-8"
             inkscape:connector-curvature="0"
             sodipodi:nodetypes="ccssccssc" />
          <path
             d="m 294.6554,302.10075 -91.1765,0 -5e-5,229.8321 c 0,39.0756 26.8908,65.9664 68.9076,65.9664 47.479,0 98.3193,0 141.59665,-5.8824 l -4.2017,-68.0672 -97.479,0 c -10.92435,0 -17.64705,-6.30255 -17.64705,-15.12605 z"
             style="font-size:84.03361511px;font-style:normal;font-variant:normal;font-weight:900;font-stretch:normal;line-height:125%;letter-spacing:0px;word-spacing:0px;fill:#8e24aa;fill-opacity:1;stroke:none;display:inline;font-family:'Exo 2.0';-inkscape-font-specification:'Exo 2.0 Heavy'"
             id="path4208-35-1"
             inkscape:connector-curvature="0"
             sodipodi:nodetypes="ccssccssc" />
          <path
             d="m 438.2018,596.21855 91.1765,0 0,-100 c 14.2857,1.68065 29.41175,2.521 44.11765,2.521 79.41175,0 107.563,-21.42855 107.563,-97.89915 0,-77.31095 -28.15125,-98.7395 -120.16805,-98.7395 -57.9832,0 -84.03365,0.42 -122.6891,4.2017 l 0,289.91595 z m 91.1765,-161.7647 0,-68.06725 29.41175,0 c 24.7899,0 31.09245,6.7227 31.09245,34.4538 0,26.89075 -6.30255,33.61345 -31.09245,33.61345 l -29.41175,0 z"
             style="font-size:84.03361511px;font-style:normal;font-variant:normal;font-weight:900;font-stretch:normal;line-height:125%;letter-spacing:0px;word-spacing:0px;fill:#8e24aa;fill-opacity:1;stroke:none;display:inline;font-family:'Exo 2.0';-inkscape-font-specification:'Exo 2.0 Heavy'"
             id="path4210-3-3"
             inkscape:connector-curvature="0" />
        </g>
      </g>
      <path
         style="fill:#8e24aa;fill-opacity:1"
         id="path5792"
         d="m 286.08548,-186.45175 h -50.625 c -8.2501,0 -15.375,6.75 -15.375,14.99999 v 254.25002 15.75 c 0,8.24999 6.75,14.99999 15.375,14.99999 h 223.5 15.375 V 82.79826 67.79825 -171.45176 -186.45175 h -188.25 z m -55.5,14.99999 c 0,-2.625 2.25,-4.875 5.25,-4.875 h 8.625 V 67.79825 h -8.625 c -1.875,0 -3.3751,0.37501 -5.25,0.75 v -240.00001 z m 233.625,254.25002 v 20.625 h -5.25 -223.5 c -2.625,0 -5.25,-2.25 -5.25,-4.875 v -15.75 c 0,-2.625 2.2499,-4.87501 5.25,-4.87501 h 50.625 178.125 v 4.87501 z m 0,-254.25002 V 67.79825 h -178.125 -31.875 v -244.12501 h 31.875 178.125 v 4.875 z m -60.75,87.37501 h -91.125 v -10.125 h 91.125 v 10.125 z m 0,25.125 h -91.125 v -10.125 h 91.125 v 10.125 z"
         inkscape:connector-curvature="0" />
    </g>
  </g>
</svg>
